<?xml version="1.0" encoding="UTF-8"?>
<svg version="1.1" xmlns="http://www.w3.org/2000/svg" width="44" height="133">
<path d="M0 0 C1.32 0 2.64 0 4 0 C3.99333817 0.60244034 3.98667633 1.20488068 3.97981262 1.82557678 C3.500485 39.32024191 3.500485 39.32024191 5.375 76.75 C5.43821442 77.5041922 5.50142883 78.2583844 5.56655884 79.03543091 C5.93181466 83.28153715 6.33801196 87.52239898 6.77233887 91.76196289 C7.02637143 94.259246 7.26935575 96.75751267 7.51269531 99.25585938 C7.68765512 101.00916414 7.86310092 102.76242049 8.0390625 104.515625 C8.11973969 105.3469696 8.20041687 106.17831421 8.28353882 107.03485107 C8.34777737 110.83320128 8.34777737 110.83320128 10 114 C11.65 109.05 13.3 104.1 15 99 C16.32 99 17.64 99 19 99 C19.96743027 110.85102077 15.27573867 122.59987583 10 133 C8.68 132.67 7.36 132.34 6 132 C5.9175 131.05125 5.835 130.1025 5.75 129.125 C5.5025 128.09375 5.255 127.0625 5 126 C3.68755917 125.29309033 2.35117459 124.62972173 1 124 C-4.163993 119.12674119 -8.03045018 112.83688243 -12 107 C-11.34 105.68 -10.68 104.36 -10 103 C-6.08650855 104.30449715 -4.67778615 106.77609938 -2.375 110 C0.1387941 113.64802752 0.1387941 113.64802752 3 117 C2.413169 106.09184738 1.63520607 95.21499197 0.6991272 84.331604 C-0.61896675 68.89788547 -1.66024442 53.49101805 -2 38 C-2.01659668 37.29407715 -2.03319336 36.5881543 -2.05029297 35.86083984 C-2.21831269 27.60713028 -1.9037765 19.37031938 -1.5625 11.125 C-1.52334473 10.14184814 -1.48418945 9.15869629 -1.44384766 8.14575195 C-1.40179199 7.23398193 -1.35973633 6.32221191 -1.31640625 5.3828125 C-1.27974854 4.56184082 -1.24309082 3.74086914 -1.20532227 2.89501953 C-1 1 -1 1 0 0 Z M4 118 C5 120 5 120 5 120 Z " fill="#00FF8C" transform="translate(18,0)"/>
</svg>
