<svg xmlns="http://www.w3.org/2000/svg" width="48" height="48" viewBox="0 0 48 48" fill="none"><path d="M26 16V32C26 35.3138 23.3138 38 20 38H15.6586C14.8349 40.3304 12.6124 42 10 42C6.6863 42 4 39.3138 4 36C4 32.6862 6.6863 30 10 30C12.6124 30 14.8349 31.6696 15.6586 34H20C21.1046 34 22 33.1046 22 32V16C22 12.6863 24.6862 10 28 10H34V4L44 12L34 20V14H28C26.8954 14 26 14.8954 26 16ZM10 38C11.1046 38 12 37.1046 12 36C12 34.8954 11.1046 34 10 34C8.89544 34 8 34.8954 8 36C8 37.1046 8.89544 38 10 38Z" fill="#00FF8C"></path></svg>