<svg xmlns="http://www.w3.org/2000/svg" xmlns:xlink="http://www.w3.org/1999/xlink" xmlns:serif="http://www.serif.com/" width="100%" height="100%" viewBox="0 0 2167 1875" version="1.1" xml:space="preserve" style="fill-rule:evenodd;clip-rule:evenodd;stroke-linejoin:round;stroke-miterlimit:2;"> <path d="M1685.43,676.438L479.66,676.438L781.102,154.339L1383.99,154.339L1685.43,676.438Z" style="fill:rgb(208,221,200);fill-rule:nonzero;"/> <path d="M1986.87,1198.56L1685.43,1720.66L1082.54,1720.66L1383.98,1198.56L1685.43,676.435L1986.87,1198.56Z" style="fill:rgb(208,221,200);fill-rule:nonzero;"/> <path d="M1685.43,676.438L1383.98,1198.56L1082.54,676.437L1685.43,676.437L1685.43,676.438Z" style="fill:rgb(197,212,190);fill-rule:nonzero;"/> <path d="M1082.55,1720.66L479.662,1720.66L178.219,1198.56L479.662,676.435L781.104,1198.56L1082.55,1720.66Z" style="fill:rgb(0, 255, 140);fill-rule:nonzero;"/> <path d="M1082.54,676.438L781.098,1198.56L479.656,676.437L1082.54,676.437L1082.54,676.438Z" style="fill:rgb(197,212,190);fill-rule:nonzero;"/> <path d="M1383.99,1198.56L1082.54,1720.66L781.102,1198.56L1383.99,1198.56Z" style="fill:rgb(197,212,190);fill-rule:nonzero;"/> <path d="M1383.99,1198.56L781.102,1198.56L1082.54,676.434L1383.99,1198.56L1383.99,1198.56Z" style="fill:white;fill-rule:nonzero;"/> <path d="M1517.66,77.17L1473.09,0.001L692.019,0.001L647.452,77.17L390.576,522.1L479.681,676.437L781.127,154.34L1384.01,154.34L1685.46,676.437L1774.54,522.1L1517.66,77.17Z" style="fill:rgb(62,78,77);fill-rule:nonzero;"/> <path d="M2120.55,1121.39L1863.65,676.435L1685.46,676.435L1986.9,1198.56L1685.46,1720.66L1082.57,1720.66L1171.68,1875L1774.54,1875L1819.11,1797.83L2120.55,1275.73L2165.12,1198.56L2120.55,1121.39Z" style="fill:rgb(62,78,77);fill-rule:nonzero;"/> <path d="M0,1198.56L44.565,1275.73L346.008,1797.83L390.574,1875L993.438,1875L1082.54,1720.66L479.654,1720.66L178.213,1198.56L479.654,676.434L301.467,676.434L44.565,1121.39L-0,1198.56L0,1198.56Z" style="fill:rgb(0, 255, 140);fill-opacity:0.2;fill-rule:nonzero;"/> <path d="M1213.01,957.383L957.385,957.383L957.385,1111.72L1042.66,1111.72L1042.66,1069.23L1128.06,1069.23L1128.06,1026.68L1213.01,1026.68L1213.01,957.383Z" style="fill:rgb(0, 255, 140);fill-rule:nonzero;"/> <path d="M419.679,1285.5C419.679,1295.63 414.182,1306.05 390.742,1306.05C377.719,1306.05 366.24,1301.03 358.62,1294.76L365.854,1282.51C372.124,1288.01 382.928,1292.45 391.417,1292.45C395.95,1292.45 399.037,1291.38 399.037,1288.49C399.037,1285.21 394.986,1283.76 386.015,1281.35C367.398,1276.34 361.031,1270.74 361.031,1258.59C361.031,1247.78 370.099,1239.49 389.97,1239.49C400.484,1239.49 410.227,1242.19 419.196,1248.85L412.831,1260.9C405.5,1255.89 396.722,1253.09 389.488,1253.09C384.664,1253.09 381.674,1253.96 381.674,1256.75C381.674,1260.03 384.085,1261.38 394.696,1264.09C411.674,1268.42 419.679,1274.41 419.679,1285.5ZM470.517,1240.65L495.213,1304.89L472.737,1304.89L469.167,1294.38L443.508,1294.38L439.937,1304.89L421.612,1304.89L446.208,1240.65L470.517,1240.65ZM456.433,1256.27L447.558,1282.41L465.308,1282.41L456.433,1256.27ZM552.717,1304.89L501.979,1304.89L501.979,1240.65L522.621,1240.65L522.621,1289.84L552.717,1289.84L552.717,1304.89ZM612.854,1304.89L560.479,1304.89L560.479,1240.65L612.375,1240.65L612.375,1255.5L581.121,1255.5L581.121,1265.63L605.913,1265.63L605.913,1279.04L581.121,1279.04L581.121,1290.03L612.854,1290.03L612.854,1304.89ZM679.488,1285.5C679.488,1295.63 673.988,1306.05 650.546,1306.05C637.525,1306.05 626.046,1301.03 618.425,1294.76L625.663,1282.51C631.929,1288.01 642.733,1292.45 651.225,1292.45C655.758,1292.45 658.842,1291.38 658.842,1288.49C658.842,1285.21 654.792,1283.76 645.821,1281.35C627.204,1276.34 620.838,1270.74 620.838,1258.59C620.838,1247.78 629.904,1239.49 649.775,1239.49C660.292,1239.49 670.033,1242.19 679.004,1248.85L672.637,1260.9C665.308,1255.89 656.529,1253.09 649.296,1253.09C644.471,1253.09 641.479,1253.96 641.479,1256.75C641.479,1260.03 643.892,1261.38 654.504,1264.09C671.479,1268.42 679.487,1274.41 679.487,1285.5L679.488,1285.5Z" style="fill:rgb(19,37,40);fill-rule:nonzero;"/> <path d="M1551.03,1285.5C1551.03,1295.63 1545.53,1306.05 1522.09,1306.05C1509.07,1306.05 1497.59,1301.03 1489.97,1294.76L1497.2,1282.51C1503.48,1288.01 1514.28,1292.45 1522.77,1292.45C1527.3,1292.45 1530.39,1291.38 1530.39,1288.49C1530.39,1285.21 1526.34,1283.76 1517.37,1281.35C1498.75,1276.34 1492.38,1270.74 1492.38,1258.59C1492.38,1247.78 1501.45,1239.49 1521.32,1239.49C1531.83,1239.49 1541.58,1242.19 1550.55,1248.85L1544.18,1260.9C1536.85,1255.89 1528.07,1253.09 1520.84,1253.09C1516.02,1253.09 1513.03,1253.96 1513.03,1256.75C1513.03,1260.03 1515.44,1261.38 1526.05,1264.09C1543.03,1268.42 1551.03,1274.41 1551.03,1285.5ZM1618.81,1262.83L1602.31,1266.21C1601.25,1259.94 1598.55,1254.63 1591.12,1254.63C1581.76,1254.63 1577.23,1262.45 1577.23,1272.77C1577.23,1283.09 1582.15,1290.9 1591.7,1290.9C1599.8,1290.9 1603.18,1286.08 1604.14,1278.65L1620.93,1283.09C1620.44,1296.02 1610.7,1306.05 1590.73,1306.05C1568.93,1306.05 1555.72,1292.73 1555.72,1272.77C1555.72,1254.34 1567.2,1239.49 1590.54,1239.49C1606.17,1239.49 1618.13,1247.78 1618.81,1262.83ZM1671.29,1240.65L1695.99,1304.89L1673.51,1304.89L1669.94,1294.38L1644.28,1294.38L1640.72,1304.89L1622.39,1304.89L1646.98,1240.65L1671.29,1240.65ZM1657.21,1256.27L1648.34,1282.41L1666.08,1282.41L1657.21,1256.27ZM1753.5,1304.89L1702.76,1304.89L1702.76,1240.65L1723.4,1240.65L1723.4,1289.84L1753.5,1289.84L1753.5,1304.89ZM1813.63,1304.89L1761.26,1304.89L1761.26,1240.65L1813.15,1240.65L1813.15,1255.5L1781.9,1255.5L1781.9,1265.63L1806.69,1265.63L1806.69,1279.04L1781.9,1279.04L1781.9,1290.03L1813.63,1290.03L1813.63,1304.89Z" style="fill:rgb(19,37,40);fill-rule:nonzero;"/> <path d="M981.204,434.225C981.204,444.354 975.704,454.771 952.267,454.771C939.242,454.771 927.763,449.754 920.142,443.483L927.379,431.233C933.65,436.733 944.45,441.171 952.942,441.171C957.475,441.171 960.562,440.108 960.562,437.217C960.562,433.933 956.508,432.488 947.538,430.075C928.921,425.063 922.554,419.467 922.554,407.312C922.554,396.508 931.621,388.212 951.492,388.212C962.008,388.212 971.75,390.913 980.721,397.569L974.354,409.627C967.025,404.611 958.246,401.813 951.013,401.813C946.188,401.813 943.196,402.681 943.196,405.479C943.196,408.758 945.608,410.109 956.221,412.81C973.196,417.15 981.204,423.133 981.204,434.225ZM1041.84,453.613L989.458,453.613L989.458,389.37L1041.36,389.37L1041.36,404.225L1010.1,404.225L1010.1,414.353L1034.9,414.353L1034.9,427.763L1010.1,427.763L1010.1,438.758L1041.84,438.758L1041.84,453.613ZM1107.12,404.418L1086.77,404.418L1086.77,453.613L1066.12,453.613L1066.12,404.418L1045.77,404.418L1045.77,389.37L1107.12,389.37L1107.12,404.418ZM1175.35,429.017C1175.35,442.713 1167.44,454.771 1144.97,454.771C1120.85,454.771 1113.23,442.038 1113.23,429.017L1113.23,389.37L1133.87,389.37L1133.87,429.017C1133.87,435.383 1136.86,439.721 1144.87,439.721C1152.59,439.721 1155.87,435.383 1155.87,429.017L1155.87,389.37L1175.35,389.37L1175.35,429.017ZM1247.88,410.205C1247.88,421.588 1239.78,430.175 1221.06,430.175L1207.08,430.175L1207.08,453.613L1186.43,453.613L1186.43,389.37L1220.58,389.37C1238.14,389.37 1247.88,396.99 1247.88,410.205ZM1227.24,411.653C1227.24,407.215 1224.35,404.225 1217.78,404.225L1207.08,404.225L1207.08,419.467L1217.78,419.467C1224.44,419.467 1227.24,415.897 1227.24,411.653Z" style="fill:rgb(19,37,40);fill-rule:nonzero;"/> <path d="M742.888,846.467L736.579,846.467C735.479,844.729 734.787,842.471 734.092,839.983C733.571,838.075 732.758,834.833 732.412,833.617C731.892,831.821 730.675,830.954 728.708,830.954L717.017,830.954L717.017,846.467L711.229,846.467L711.229,807.921L729.808,807.921C739.183,807.921 742.887,813.129 742.887,818.454C742.887,824.529 738.375,827.946 732.238,828.754C737.042,829.104 738.083,831.533 739.358,836.975C740.342,841.2 741.15,843.975 742.887,846.467L742.888,846.467ZM737.159,819.088C737.159,815.271 734.789,812.779 728.768,812.779L717.018,812.779L717.018,826.267L728.768,826.267C734.555,826.267 737.159,822.85 737.159,819.088ZM775.976,842.875L775.976,845.771C775.509,846.292 774.355,846.929 772.964,846.929C769.259,846.929 767.118,844.963 767.059,841.371C765.384,845.075 762.605,847.046 757.684,847.046C752.651,847.046 749.351,844.442 749.351,839.925C749.351,834.483 754.097,832.054 761.68,832.054C763.126,832.054 764.747,832.171 766.426,832.342L766.426,829.275C766.426,825.342 764.863,823.083 760.809,823.083C757.047,823.083 754.734,824.471 754.734,826.846C754.734,827.483 754.905,828.292 755.314,829.046L750.334,831.013C749.814,829.738 749.526,828.467 749.526,827.308C749.526,822.504 753.863,818.917 760.984,818.917C769.143,818.917 771.98,823.546 771.98,830.029L771.98,839.983C771.98,841.779 772.326,843.108 774.526,843.108C775.28,843.108 775.568,842.992 775.976,842.875ZM766.426,835.296L766.426,835.004C757.28,835.525 754.905,837.033 754.905,840.158C754.905,841.833 756.005,843.225 758.609,843.225C763.243,843.225 766.426,840.213 766.426,835.296ZM807.163,832.979C807.163,840.679 803.401,847.046 796.455,847.046C791.709,847.046 788.413,843.629 787.543,840.446L787.543,855.958L781.988,855.958L781.988,819.496L785.288,819.496L786.559,827.25C786.905,823.95 790.205,818.917 795.822,818.917C803.343,818.917 807.163,825.283 807.163,832.979ZM801.609,832.979C801.609,827.25 799.059,823.429 794.78,823.429C790.959,823.429 787.543,827.192 787.543,832.979C787.543,838.304 790.901,842.529 794.722,842.529C798.888,842.529 801.609,838.596 801.609,832.979ZM819.647,815.154L814.093,815.154L814.093,807.921L819.647,807.921L819.647,815.154ZM819.647,846.467L814.093,846.467L814.093,819.496L819.647,819.496L819.647,846.467ZM826.584,832.979C826.584,825.283 830.347,818.917 837.293,818.917C842.038,818.917 845.338,822.329 846.205,825.513L846.205,807.921L851.759,807.921L851.759,846.467L848.463,846.467L847.188,838.708C846.843,842.008 843.543,847.046 837.93,847.046C830.405,847.046 826.584,840.679 826.584,832.979ZM832.143,832.979C832.143,838.708 834.688,842.529 838.972,842.529C842.789,842.529 846.205,838.767 846.205,832.979C846.205,827.654 842.847,823.429 839.026,823.429C834.859,823.429 832.143,827.367 832.143,832.979ZM697.28,881.417C701.393,881.417 703.418,884.079 703.418,887.725C703.418,889.517 702.955,891.546 701.968,893.571L697.051,893.8C697.572,892.529 698.264,890.617 698.264,888.825C698.264,887.263 697.689,885.988 695.834,885.988C691.668,885.988 689.989,895.363 689.989,902.829L689.989,908.967L684.434,908.967L684.434,881.996L687.789,881.996L689.351,892.933C689.759,885.583 692.476,881.417 697.28,881.417ZM725.693,900.108L730.493,901.442C730.147,907.113 725.576,909.546 720.018,909.546C711.972,909.546 706.705,904.625 706.705,895.479C706.705,886.913 711.972,881.417 719.439,881.417C726.268,881.417 730.205,885.408 730.205,892.413C730.205,893.858 730.03,895.363 729.684,897.042L712.609,897.042C712.609,902.192 715.793,905.492 720.309,905.492C723.897,905.492 725.459,903.583 725.693,900.108ZM724.764,893.167C724.88,892.529 724.939,891.892 724.939,891.313C724.939,887.783 723.03,885.35 719.497,885.35C715.33,885.35 713.018,888.883 712.668,893.167L724.764,893.167ZM759.672,881.996L748.268,908.967L744.334,908.967L732.93,881.996L738.605,881.996L746.301,902.425L754.001,881.996L759.672,881.996ZM781.08,900.108L785.884,901.442C785.538,907.113 780.963,909.546 775.409,909.546C767.363,909.546 762.097,904.625 762.097,895.479C762.097,886.913 767.363,881.417 774.83,881.417C781.659,881.417 785.597,885.408 785.597,892.413C785.597,893.858 785.422,895.363 785.076,897.042L768.001,897.042C768.001,902.192 771.184,905.492 775.697,905.492C779.288,905.492 780.851,903.583 781.08,900.108ZM780.155,893.167C780.272,892.529 780.33,891.892 780.33,891.313C780.33,887.783 778.418,885.35 774.888,885.35C770.722,885.35 768.405,888.883 768.059,893.167L780.155,893.167ZM816.913,908.967L811.359,908.967L811.359,892.529C811.359,888.421 809.388,886.45 806.263,886.45C801.343,886.45 798.509,892.875 798.509,900.804L798.509,908.967L792.951,908.967L792.951,881.996L796.251,881.996L797.638,892.067C798.276,886.221 801.751,881.417 807.48,881.417C813.73,881.417 816.913,885.642 816.913,892.125L816.913,908.967ZM825.613,881.996L831.172,881.996L831.172,898.433C831.172,902.542 833.138,904.508 836.263,904.508C841.184,904.508 844.018,898.083 844.018,890.154L844.018,881.996L849.576,881.996L849.576,908.967L846.276,908.967L844.888,898.896C844.251,904.742 840.78,909.546 835.047,909.546C828.797,909.546 825.613,905.321 825.613,898.838L825.613,881.996ZM875.638,900.108L880.443,901.442C880.097,907.113 875.526,909.546 869.968,909.546C861.922,909.546 856.655,904.625 856.655,895.479C856.655,886.913 861.922,881.417 869.388,881.417C876.218,881.417 880.155,885.408 880.155,892.413C880.155,893.858 879.98,895.363 879.634,897.042L862.559,897.042C862.559,902.192 865.743,905.492 870.259,905.492C873.847,905.492 875.409,903.583 875.638,900.108ZM874.713,893.167C874.83,892.529 874.888,891.892 874.888,891.313C874.888,887.783 872.976,885.35 869.447,885.35C865.28,885.35 862.963,888.883 862.618,893.167L874.713,893.167Z" style="fill:rgb(19,37,40);fill-rule:nonzero;"/> <path d="M1276.38,846.467L1263.82,813.3L1263.82,846.467L1258.56,846.467L1258.56,807.921L1266.77,807.921L1278.81,840.388L1290.85,807.921L1299.07,807.921L1299.07,846.467L1293.8,846.467L1293.8,813.3L1281.24,846.467L1276.38,846.467ZM1334.2,842.875L1334.2,845.771C1333.74,846.292 1332.59,846.929 1331.2,846.929C1327.49,846.929 1325.35,844.963 1325.29,841.371C1323.61,845.075 1320.84,847.046 1315.92,847.046C1310.88,847.046 1307.58,844.442 1307.58,839.925C1307.58,834.483 1312.33,832.054 1319.91,832.054C1321.36,832.054 1322.98,832.171 1324.65,832.342L1324.65,829.275C1324.65,825.342 1323.09,823.083 1319.04,823.083C1315.28,823.083 1312.96,824.471 1312.96,826.846C1312.96,827.483 1313.14,828.292 1313.54,829.046L1308.57,831.013C1308.05,829.738 1307.76,828.467 1307.76,827.308C1307.76,822.504 1312.1,818.917 1319.21,818.917C1327.38,818.917 1330.21,823.546 1330.21,830.029L1330.21,839.983C1330.21,841.779 1330.56,843.108 1332.76,843.108C1333.51,843.108 1333.8,842.992 1334.2,842.875ZM1324.65,835.296L1324.65,835.004C1315.51,835.525 1313.14,837.033 1313.14,840.158C1313.14,841.833 1314.24,843.225 1316.84,843.225C1321.47,843.225 1324.65,840.213 1324.65,835.296ZM1363.54,846.467L1357.64,846.467L1350.06,835.7L1342.42,846.467L1336.57,846.467L1347.05,832.575L1337.44,819.496L1343.4,819.496L1350.06,829.45L1356.71,819.496L1362.67,819.496L1353.06,832.575L1363.54,846.467ZM1374.6,815.154L1369.04,815.154L1369.04,807.921L1374.6,807.921L1374.6,815.154ZM1374.6,846.467L1369.04,846.467L1369.04,819.496L1374.6,819.496L1374.6,846.467ZM1407.81,846.467L1402.26,846.467L1402.26,830.029C1402.26,825.921 1400.29,823.95 1397.16,823.95C1392.25,823.95 1389.41,830.375 1389.41,838.304L1389.41,846.467L1383.85,846.467L1383.85,819.496L1387.15,819.496L1388.54,829.567C1389.18,823.721 1392.65,818.917 1398.38,818.917C1404.4,818.917 1407.41,822.85 1407.64,828.929C1408.16,823.142 1411.69,818.917 1416.79,818.917C1423.04,818.917 1426.22,823.142 1426.22,829.625L1426.22,846.467L1420.66,846.467L1420.66,830.029C1420.66,825.921 1418.7,823.95 1415.57,823.95C1410.48,823.95 1407.81,829.854 1407.81,838.537L1407.81,846.467ZM1434.88,819.496L1440.44,819.496L1440.44,835.933C1440.44,840.042 1442.41,842.008 1445.54,842.008C1450.45,842.008 1453.29,835.583 1453.29,827.654L1453.29,819.496L1458.85,819.496L1458.85,846.467L1455.55,846.467L1454.16,836.396C1453.52,842.242 1450.05,847.046 1444.32,847.046C1438.07,847.046 1434.88,842.821 1434.88,836.337L1434.88,819.496ZM1492.09,846.467L1486.53,846.467L1486.53,830.029C1486.53,825.921 1484.56,823.95 1481.44,823.95C1476.52,823.95 1473.68,830.375 1473.68,838.304L1473.68,846.467L1468.13,846.467L1468.13,819.496L1471.43,819.496L1472.81,829.567C1473.45,823.721 1476.92,818.917 1482.65,818.917C1488.67,818.917 1491.68,822.85 1491.91,828.929C1492.43,823.142 1495.96,818.917 1501.06,818.917C1507.31,818.917 1510.49,823.142 1510.49,829.625L1510.49,846.467L1504.93,846.467L1504.93,830.029C1504.93,825.921 1502.97,823.95 1499.84,823.95C1494.75,823.95 1492.09,829.854 1492.09,838.537L1492.09,846.467ZM1293.01,881.996L1281.61,908.967L1277.67,908.967L1266.27,881.996L1271.94,881.996L1279.63,902.425L1287.34,881.996L1293.01,881.996ZM1323.21,905.375L1323.21,908.271C1322.75,908.792 1321.59,909.429 1320.2,909.429C1316.5,909.429 1314.36,907.462 1314.3,903.871C1312.62,907.575 1309.84,909.546 1304.92,909.546C1299.89,909.546 1296.59,906.942 1296.59,902.425C1296.59,896.983 1301.34,894.554 1308.92,894.554C1310.36,894.554 1311.99,894.671 1313.66,894.842L1313.66,891.775C1313.66,887.842 1312.1,885.583 1308.05,885.583C1304.29,885.583 1301.97,886.971 1301.97,889.346C1301.97,889.983 1302.15,890.792 1302.55,891.546L1297.57,893.512C1297.05,892.237 1296.76,890.967 1296.76,889.808C1296.76,885.004 1301.11,881.417 1308.22,881.417C1316.38,881.417 1319.22,886.046 1319.22,892.529L1319.22,902.483C1319.22,904.279 1319.57,905.608 1321.76,905.608C1322.52,905.608 1322.81,905.492 1323.21,905.375ZM1313.66,897.796L1313.66,897.504C1304.52,898.025 1302.15,899.533 1302.15,902.658C1302.15,904.333 1303.25,905.725 1305.85,905.725C1310.48,905.725 1313.66,902.712 1313.66,897.796ZM1334.78,908.967L1329.23,908.967L1329.23,870.421L1334.78,870.421L1334.78,908.967ZM1343.74,881.996L1349.3,881.996L1349.3,898.433C1349.3,902.542 1351.27,904.508 1354.39,904.508C1359.31,904.508 1362.15,898.083 1362.15,890.154L1362.15,881.996L1367.7,881.996L1367.7,908.967L1364.4,908.967L1363.02,898.896C1362.38,904.742 1358.91,909.546 1353.18,909.546C1346.93,909.546 1343.74,905.321 1343.74,898.837L1343.74,881.996ZM1402.57,905.375L1402.57,908.271C1402.11,908.792 1400.95,909.429 1399.56,909.429C1395.86,909.429 1393.71,907.462 1393.65,903.871C1391.98,907.575 1389.2,909.546 1384.28,909.546C1379.24,909.546 1375.94,906.942 1375.94,902.425C1375.94,896.983 1380.69,894.554 1388.27,894.554C1389.72,894.554 1391.34,894.671 1393.02,894.842L1393.02,891.775C1393.02,887.842 1391.45,885.583 1387.4,885.583C1383.64,885.583 1381.33,886.971 1381.33,889.346C1381.33,889.983 1381.5,890.792 1381.9,891.546L1376.93,893.512C1376.4,892.237 1376.12,890.967 1376.12,889.808C1376.12,885.004 1380.46,881.417 1387.58,881.417C1395.74,881.417 1398.57,886.046 1398.57,892.529L1398.57,902.483C1398.57,904.279 1398.92,905.608 1401.12,905.608C1401.87,905.608 1402.16,905.492 1402.57,905.375ZM1393.02,897.796L1393.02,897.504C1383.87,898.025 1381.5,899.533 1381.5,902.658C1381.5,904.333 1382.6,905.725 1385.2,905.725C1389.84,905.725 1393.02,902.712 1393.02,897.796ZM1421.89,904.8L1421.83,908.387C1420.68,909.079 1418.36,909.546 1416.39,909.546C1411.13,909.546 1409.16,906.304 1409.16,901.617L1409.16,885.642L1404.53,885.642L1404.53,881.996L1409.16,881.996L1409.16,874.354L1414.72,873.604L1414.72,881.996L1421.72,881.996L1421.72,885.642L1414.72,885.642L1414.72,901.617C1414.72,903.35 1415.12,905.204 1417.73,905.204C1418.94,905.204 1420.68,905.087 1421.89,904.8ZM1433.81,877.654L1428.25,877.654L1428.25,870.421L1433.81,870.421L1433.81,877.654ZM1433.81,908.967L1428.25,908.967L1428.25,881.996L1433.81,881.996L1433.81,908.967ZM1466.9,895.479C1466.9,903.7 1460.94,909.546 1453.82,909.546C1446.7,909.546 1440.74,903.7 1440.74,895.479C1440.74,887.262 1446.7,881.417 1453.82,881.417C1460.94,881.417 1466.9,887.262 1466.9,895.479ZM1461.35,895.479C1461.35,890.037 1458.22,885.812 1453.82,885.812C1449.43,885.812 1446.3,890.037 1446.3,895.479C1446.3,900.921 1449.43,905.146 1453.82,905.146C1458.22,905.146 1461.35,900.921 1461.35,895.479ZM1497.82,908.967L1492.27,908.967L1492.27,892.529C1492.27,888.421 1490.3,886.45 1487.17,886.45C1482.26,886.45 1479.42,892.875 1479.42,900.804L1479.42,908.967L1473.86,908.967L1473.86,881.996L1477.16,881.996L1478.55,892.067C1479.19,886.221 1482.66,881.417 1488.39,881.417C1494.64,881.417 1497.82,885.642 1497.82,892.125L1497.82,908.967Z" style="fill:rgb(19,37,40);fill-rule:nonzero;"/> <path d="M967.313,1305.49L964.183,1309.25C961.813,1306.48 956.721,1303.58 951.917,1303.58C946.65,1303.58 943.579,1305.72 943.579,1309.71C943.579,1313.19 945.779,1315.1 953.363,1316.72C963.2,1318.8 967.313,1321.29 967.313,1328.07C967.313,1334.08 962.854,1339.12 953.362,1339.12C946.475,1339.12 940.454,1336.46 936.229,1331.02L939.875,1327.49C943.292,1331.65 947.863,1334.72 953.708,1334.72C958.804,1334.72 961.525,1331.94 961.525,1328.41C961.525,1324.94 958.917,1323.38 953.825,1322.39C943.754,1320.42 937.792,1317.64 937.792,1309.54C937.792,1303.64 942.713,1299.18 952.029,1299.18C957.875,1299.18 962.971,1301.44 967.313,1305.49ZM974.858,1311.45L980.413,1311.45L980.413,1327.89C980.413,1332 982.383,1333.97 985.508,1333.97C990.425,1333.97 993.263,1327.54 993.263,1319.62L993.263,1311.45L998.817,1311.45L998.817,1338.42L995.521,1338.42L994.129,1328.35C993.492,1334.2 990.021,1339 984.292,1339C978.042,1339 974.858,1334.78 974.858,1328.29L974.858,1311.45ZM1028.88,1315.91L1026.1,1319.04C1023.73,1316.66 1020.77,1314.87 1017.36,1314.87C1014.75,1314.87 1012.79,1315.85 1012.79,1317.99C1012.79,1320.42 1014.18,1321.06 1019.33,1322.62C1026.15,1324.71 1028.65,1326.67 1028.65,1331.02C1028.65,1335.82 1025.05,1339 1018.28,1339C1013.25,1339 1008.68,1336.34 1006.36,1333.5L1009.08,1330.32C1011.45,1332.87 1014.58,1335.01 1018.69,1335.01C1021.82,1335.01 1023.2,1333.79 1023.2,1332.06C1023.2,1330.43 1022.22,1329.05 1016.95,1327.6C1008.97,1325.4 1007.35,1322.57 1007.35,1318.4C1007.35,1313.94 1011.4,1310.87 1017.36,1310.87C1022.05,1310.87 1025.63,1312.49 1028.88,1315.91ZM1049.28,1334.26L1049.22,1337.84C1048.06,1338.54 1045.75,1339 1043.78,1339C1038.51,1339 1036.54,1335.76 1036.54,1331.07L1036.54,1315.1L1031.91,1315.1L1031.91,1311.45L1036.54,1311.45L1036.54,1303.82L1042.1,1303.06L1042.1,1311.45L1049.1,1311.45L1049.1,1315.1L1042.1,1315.1L1042.1,1331.07C1042.1,1332.81 1042.5,1334.66 1045.11,1334.66C1046.32,1334.66 1048.06,1334.54 1049.28,1334.26ZM1081.21,1334.84L1081.21,1337.73C1080.75,1338.25 1079.59,1338.88 1078.2,1338.88C1074.5,1338.88 1072.36,1336.92 1072.3,1333.33C1070.62,1337.04 1067.85,1339 1062.92,1339C1057.89,1339 1054.59,1336.4 1054.59,1331.88C1054.59,1326.44 1059.34,1324.01 1066.92,1324.01C1068.37,1324.01 1069.99,1324.13 1071.66,1324.3L1071.66,1321.24C1071.66,1317.3 1070.1,1315.04 1066.05,1315.04C1062.29,1315.04 1059.97,1316.43 1059.97,1318.8C1059.97,1319.44 1060.15,1320.25 1060.55,1321L1055.58,1322.97C1055.05,1321.7 1054.76,1320.42 1054.76,1319.27C1054.76,1314.46 1059.1,1310.87 1066.22,1310.87C1074.38,1310.87 1077.22,1315.5 1077.22,1321.99L1077.22,1331.94C1077.22,1333.74 1077.57,1335.07 1079.77,1335.07C1080.52,1335.07 1080.81,1334.95 1081.21,1334.84ZM1071.66,1327.25L1071.66,1326.96C1062.52,1327.49 1060.15,1328.99 1060.15,1332.12C1060.15,1333.79 1061.25,1335.18 1063.85,1335.18C1068.48,1335.18 1071.66,1332.17 1071.66,1327.25ZM1092.78,1307.11L1087.22,1307.11L1087.22,1299.88L1092.78,1299.88L1092.78,1307.11ZM1092.78,1338.42L1087.22,1338.42L1087.22,1311.45L1092.78,1311.45L1092.78,1338.42ZM1126,1338.42L1120.44,1338.42L1120.44,1321.99C1120.44,1317.88 1118.47,1315.91 1115.35,1315.91C1110.43,1315.91 1107.59,1322.34 1107.59,1330.27L1107.59,1338.42L1102.03,1338.42L1102.03,1311.45L1105.33,1311.45L1106.73,1321.52C1107.36,1315.68 1110.83,1310.87 1116.56,1310.87C1122.81,1310.87 1126,1315.1 1126,1321.58L1126,1338.42ZM1160.57,1334.84L1160.57,1337.73C1160.1,1338.25 1158.95,1338.88 1157.56,1338.88C1153.85,1338.88 1151.71,1336.92 1151.65,1333.33C1149.98,1337.04 1147.2,1339 1142.28,1339C1137.25,1339 1133.95,1336.4 1133.95,1331.88C1133.95,1326.44 1138.69,1324.01 1146.28,1324.01C1147.72,1324.01 1149.34,1324.13 1151.02,1324.3L1151.02,1321.24C1151.02,1317.3 1149.45,1315.04 1145.4,1315.04C1141.64,1315.04 1139.33,1316.43 1139.33,1318.8C1139.33,1319.44 1139.5,1320.25 1139.91,1321L1134.93,1322.97C1134.41,1321.7 1134.12,1320.42 1134.12,1319.27C1134.12,1314.46 1138.46,1310.87 1145.58,1310.87C1153.74,1310.87 1156.58,1315.5 1156.58,1321.99L1156.58,1331.94C1156.58,1333.74 1156.92,1335.07 1159.12,1335.07C1159.88,1335.07 1160.16,1334.95 1160.57,1334.84ZM1151.02,1327.25L1151.02,1326.96C1141.88,1327.49 1139.5,1328.99 1139.5,1332.12C1139.5,1333.79 1140.6,1335.18 1143.2,1335.18C1147.84,1335.18 1151.02,1332.17 1151.02,1327.25ZM1191.76,1324.94C1191.76,1332.63 1187.65,1339 1180.12,1339C1174.51,1339 1171.5,1333.97 1171.15,1330.67L1169.88,1338.42L1166.58,1338.42L1166.58,1299.88L1172.14,1299.88L1172.14,1317.47C1173.01,1314.29 1176.3,1310.87 1181.05,1310.87C1188,1310.87 1191.76,1317.24 1191.76,1324.94ZM1186.2,1324.94C1186.2,1319.21 1183.31,1315.39 1179.14,1315.39C1175.32,1315.39 1172.14,1319.15 1172.14,1324.94C1172.14,1330.73 1175.32,1334.49 1179.14,1334.49C1183.31,1334.49 1186.2,1330.67 1186.2,1324.94ZM1204.24,1338.42L1198.69,1338.42L1198.69,1299.88L1204.24,1299.88L1204.24,1338.42ZM1230.28,1329.57L1235.08,1330.9C1234.73,1336.57 1230.16,1339 1224.61,1339C1216.56,1339 1211.3,1334.08 1211.3,1324.94C1211.3,1316.37 1216.56,1310.87 1224.03,1310.87C1230.86,1310.87 1234.79,1314.87 1234.79,1321.87C1234.79,1323.32 1234.62,1324.82 1234.27,1326.5L1217.2,1326.5C1217.2,1331.65 1220.38,1334.95 1224.9,1334.95C1228.48,1334.95 1230.05,1333.04 1230.28,1329.57ZM1229.35,1322.62C1229.47,1321.99 1229.53,1321.35 1229.53,1320.77C1229.53,1317.24 1227.62,1314.81 1224.09,1314.81C1219.92,1314.81 1217.6,1318.34 1217.25,1322.62L1229.35,1322.62ZM1010.66,1391.26C1008.4,1391.26 1006.43,1390.91 1004.7,1390.16C1003.77,1390.62 1002.79,1391.43 1002.79,1392.47C1002.79,1394.33 1004.81,1394.9 1007.36,1394.9L1013.09,1394.9C1021.25,1394.9 1024.61,1397.86 1024.61,1402.43C1024.61,1408.04 1018.47,1410.99 1010.25,1410.99C1002.03,1410.99 996.075,1409.03 996.075,1403.93C996.075,1400.63 998.967,1398.72 1003.89,1398.55C999.95,1397.8 997.463,1396.41 997.463,1393.4C997.463,1391.09 999.95,1389.58 1002.73,1389.12C1000.41,1387.49 999.083,1385.12 999.083,1382.34C999.083,1377.13 1003.77,1373.43 1010.66,1373.43C1012.74,1373.43 1014.6,1373.78 1016.22,1374.41C1016.68,1373.78 1016.91,1373.09 1016.91,1372.45C1016.91,1371.29 1016.33,1370.48 1015.29,1370.02L1018.99,1367.18C1020.67,1367.93 1021.48,1368.98 1021.48,1370.71C1021.48,1372.39 1020.5,1374.18 1018.12,1375.34C1020.73,1376.96 1022.23,1379.39 1022.23,1382.34C1022.23,1386.92 1018.01,1391.26 1010.66,1391.26ZM1019.05,1402.89C1019.05,1400.69 1017.2,1399.42 1013.55,1399.42L1009.21,1399.42C1004.47,1399.42 1001.86,1400.63 1001.86,1403.3C1001.86,1406.19 1005.22,1407.63 1010.43,1407.63C1015.87,1407.63 1019.05,1405.79 1019.05,1402.89ZM1016.56,1382.34C1016.56,1379.57 1014.42,1377.02 1010.66,1377.02C1006.9,1377.02 1004.75,1379.57 1004.75,1382.34C1004.75,1385.12 1006.9,1387.67 1010.66,1387.67C1014.42,1387.67 1016.56,1385.12 1016.56,1382.34L1016.56,1382.34ZM1042.79,1373.37C1046.9,1373.37 1048.93,1376.04 1048.93,1379.68C1048.93,1381.48 1048.46,1383.5 1047.48,1385.53L1042.56,1385.76C1043.08,1384.49 1043.78,1382.58 1043.78,1380.78C1043.78,1379.22 1043.2,1377.95 1041.35,1377.95C1037.18,1377.95 1035.5,1387.32 1035.5,1394.79L1035.5,1400.92L1029.94,1400.92L1029.94,1373.95L1033.3,1373.95L1034.86,1384.89C1035.27,1377.54 1037.99,1373.37 1042.79,1373.37ZM1078.38,1387.44C1078.38,1395.66 1072.41,1401.5 1065.3,1401.5C1058.18,1401.5 1052.22,1395.66 1052.22,1387.44C1052.22,1379.22 1058.18,1373.37 1065.3,1373.37C1072.41,1373.37 1078.38,1379.22 1078.38,1387.44ZM1072.82,1387.44C1072.82,1382 1069.69,1377.77 1065.3,1377.77C1060.9,1377.77 1057.77,1382 1057.77,1387.44C1057.77,1392.88 1060.9,1397.1 1065.3,1397.1C1069.69,1397.1 1072.82,1392.88 1072.82,1387.44ZM1104.2,1373.95L1110.74,1394.04L1116.82,1373.95L1122.09,1373.95L1112.65,1400.92L1108.26,1400.92L1101.6,1378.93L1094.94,1400.92L1090.54,1400.92L1081.11,1373.95L1086.38,1373.95L1092.45,1394.04L1098.99,1373.95L1104.2,1373.95ZM1141.26,1396.76L1141.2,1400.34C1140.05,1401.04 1137.73,1401.5 1135.76,1401.5C1130.5,1401.5 1128.53,1398.26 1128.53,1393.57L1128.53,1377.6L1123.9,1377.6L1123.9,1373.95L1128.53,1373.95L1128.53,1366.32L1134.08,1365.56L1134.08,1373.95L1141.09,1373.95L1141.09,1377.6L1134.08,1377.6L1134.08,1393.57C1134.08,1395.31 1134.49,1397.16 1137.1,1397.16C1138.31,1397.16 1140.05,1397.04 1141.26,1396.76ZM1171.58,1400.92L1166.03,1400.92L1166.03,1384.49C1166.03,1380.38 1164.06,1378.41 1160.93,1378.41C1156.13,1378.41 1153.18,1384.02 1153.18,1392.18L1153.18,1400.92L1147.62,1400.92L1147.62,1362.38L1153.18,1362.38L1153.18,1381.65C1154.1,1376.85 1157.34,1373.37 1162.15,1373.37C1168.4,1373.37 1171.58,1377.6 1171.58,1384.08L1171.58,1400.92Z" style="fill:rgb(19,37,40);fill-rule:nonzero;"/> <g transform="matrix(0.5,-0.866025,0.866025,0.5,-1318.84,202.75)"> <g> <g transform="matrix(1,0,0,1,-103.005,1736.2)"> <g transform="matrix(65.833,0,0,65.833,0,0)"> <path d="M0.085,-0L0.085,-0.666L0.185,-0.666L0.185,-0.086L0.527,-0.086L0.527,-0L0.085,-0Z" style="fill:white;fill-rule:nonzero;"/> </g> </g> <g transform="matrix(1,0,0,1,-65.875,1736.2)"> <g transform="matrix(65.833,0,0,65.833,0,0)"> <path d="M0.453,-0.13C0.452,-0.105 0.446,-0.084 0.436,-0.067C0.426,-0.049 0.413,-0.034 0.397,-0.023C0.38,-0.012 0.361,-0.003 0.34,0.002C0.319,0.007 0.296,0.01 0.272,0.01C0.237,0.01 0.206,0.005 0.178,-0.006C0.149,-0.016 0.125,-0.031 0.105,-0.052C0.085,-0.073 0.069,-0.098 0.059,-0.129C0.048,-0.159 0.042,-0.194 0.042,-0.233C0.042,-0.27 0.047,-0.303 0.058,-0.333C0.069,-0.363 0.084,-0.389 0.104,-0.41C0.123,-0.431 0.147,-0.448 0.174,-0.459C0.201,-0.47 0.23,-0.476 0.262,-0.476C0.321,-0.476 0.367,-0.46 0.4,-0.427C0.432,-0.393 0.448,-0.347 0.448,-0.286C0.448,-0.261 0.445,-0.235 0.439,-0.206L0.144,-0.206C0.144,-0.161 0.156,-0.126 0.181,-0.1C0.206,-0.073 0.238,-0.06 0.277,-0.06C0.308,-0.06 0.331,-0.068 0.346,-0.084C0.36,-0.1 0.368,-0.123 0.37,-0.153L0.453,-0.13ZM0.354,-0.273C0.356,-0.284 0.357,-0.294 0.357,-0.305C0.357,-0.336 0.349,-0.361 0.333,-0.38C0.317,-0.399 0.294,-0.408 0.263,-0.408C0.245,-0.408 0.229,-0.405 0.215,-0.398C0.201,-0.391 0.189,-0.381 0.179,-0.369C0.169,-0.356 0.161,-0.342 0.156,-0.326C0.15,-0.309 0.146,-0.292 0.145,-0.273L0.354,-0.273Z" style="fill:white;fill-rule:nonzero;"/> </g> <g transform="matrix(65.833,0,0,65.833,32.5873,0)"> <path d="M0.522,-0.012C0.518,-0.007 0.511,-0.003 0.502,0.002C0.493,0.006 0.482,0.008 0.47,0.008C0.438,0.008 0.413,-0 0.396,-0.017C0.378,-0.033 0.369,-0.057 0.368,-0.088C0.353,-0.056 0.333,-0.032 0.308,-0.015C0.283,0.002 0.249,0.01 0.206,0.01C0.162,0.01 0.127,-0.001 0.101,-0.022C0.075,-0.043 0.062,-0.074 0.062,-0.113C0.062,-0.16 0.081,-0.195 0.119,-0.217C0.157,-0.238 0.209,-0.249 0.275,-0.249C0.288,-0.249 0.301,-0.249 0.315,-0.248C0.328,-0.247 0.342,-0.245 0.357,-0.244L0.357,-0.297C0.357,-0.331 0.35,-0.357 0.335,-0.376C0.32,-0.395 0.295,-0.404 0.26,-0.404C0.227,-0.404 0.202,-0.398 0.183,-0.387C0.164,-0.376 0.155,-0.36 0.155,-0.339C0.155,-0.326 0.158,-0.314 0.165,-0.301L0.079,-0.267C0.07,-0.29 0.065,-0.311 0.065,-0.331C0.065,-0.352 0.07,-0.371 0.079,-0.389C0.088,-0.406 0.1,-0.422 0.118,-0.435C0.135,-0.448 0.155,-0.458 0.18,-0.465C0.205,-0.472 0.232,-0.476 0.263,-0.476C0.298,-0.476 0.328,-0.471 0.352,-0.462C0.376,-0.452 0.396,-0.439 0.411,-0.422C0.426,-0.405 0.436,-0.384 0.443,-0.361C0.45,-0.338 0.453,-0.312 0.453,-0.284L0.453,-0.112C0.453,-0.097 0.456,-0.084 0.461,-0.074C0.466,-0.063 0.478,-0.058 0.497,-0.058C0.504,-0.058 0.509,-0.058 0.512,-0.059C0.515,-0.06 0.519,-0.061 0.522,-0.062L0.522,-0.012ZM0.357,-0.198C0.318,-0.196 0.285,-0.193 0.26,-0.188C0.234,-0.183 0.214,-0.178 0.199,-0.171C0.184,-0.164 0.173,-0.155 0.167,-0.145C0.161,-0.134 0.158,-0.122 0.158,-0.109C0.158,-0.094 0.163,-0.082 0.173,-0.072C0.183,-0.061 0.199,-0.056 0.222,-0.056C0.262,-0.056 0.295,-0.068 0.32,-0.093C0.345,-0.117 0.357,-0.15 0.357,-0.193L0.357,-0.198Z" style="fill:white;fill-rule:nonzero;"/> </g> <g transform="matrix(65.833,0,0,65.833,68.5322,0)"> <path d="M0.04,-0.233C0.04,-0.266 0.044,-0.298 0.052,-0.327C0.06,-0.356 0.072,-0.382 0.088,-0.404C0.103,-0.426 0.123,-0.444 0.146,-0.457C0.168,-0.47 0.195,-0.476 0.225,-0.476C0.246,-0.476 0.265,-0.473 0.282,-0.466C0.299,-0.459 0.314,-0.451 0.327,-0.44C0.34,-0.428 0.351,-0.416 0.36,-0.403C0.369,-0.39 0.375,-0.376 0.379,-0.362L0.379,-0.666L0.475,-0.666L0.475,-0L0.418,-0L0.396,-0.134C0.395,-0.12 0.39,-0.105 0.382,-0.088C0.374,-0.071 0.363,-0.055 0.35,-0.041C0.337,-0.026 0.32,-0.014 0.301,-0.005C0.282,0.005 0.26,0.01 0.236,0.01C0.203,0.01 0.175,0.004 0.151,-0.01C0.126,-0.023 0.106,-0.04 0.09,-0.062C0.073,-0.084 0.061,-0.11 0.053,-0.139C0.044,-0.168 0.04,-0.2 0.04,-0.233ZM0.136,-0.233C0.136,-0.183 0.146,-0.143 0.167,-0.113C0.188,-0.083 0.217,-0.068 0.254,-0.068C0.271,-0.068 0.287,-0.072 0.302,-0.08C0.317,-0.087 0.33,-0.098 0.341,-0.113C0.352,-0.128 0.362,-0.145 0.369,-0.165C0.376,-0.185 0.379,-0.208 0.379,-0.233C0.379,-0.256 0.376,-0.277 0.369,-0.298C0.362,-0.318 0.353,-0.335 0.342,-0.35C0.331,-0.365 0.318,-0.376 0.303,-0.385C0.288,-0.394 0.272,-0.398 0.255,-0.398C0.237,-0.398 0.221,-0.394 0.206,-0.386C0.191,-0.378 0.179,-0.367 0.169,-0.352C0.158,-0.337 0.15,-0.32 0.145,-0.3C0.139,-0.279 0.136,-0.257 0.136,-0.233Z" style="fill:white;fill-rule:nonzero;"/> </g> <g transform="matrix(65.833,0,0,65.833,119.224,0)"> <path d="M0.523,-0C0.514,-0.015 0.506,-0.033 0.499,-0.052C0.492,-0.071 0.486,-0.091 0.48,-0.112C0.478,-0.12 0.467,-0.161 0.464,-0.172C0.461,-0.182 0.452,-0.217 0.451,-0.222C0.442,-0.253 0.421,-0.268 0.387,-0.268L0.185,-0.268L0.185,-0L0.085,-0L0.085,-0.666L0.406,-0.666C0.447,-0.666 0.481,-0.661 0.51,-0.651C0.539,-0.64 0.562,-0.627 0.58,-0.61C0.598,-0.592 0.611,-0.573 0.62,-0.551C0.628,-0.529 0.632,-0.507 0.632,-0.484C0.632,-0.458 0.627,-0.435 0.618,-0.414C0.609,-0.393 0.596,-0.376 0.58,-0.361C0.563,-0.346 0.544,-0.334 0.522,-0.325C0.499,-0.316 0.475,-0.309 0.448,-0.306C0.469,-0.305 0.486,-0.301 0.499,-0.295C0.512,-0.288 0.524,-0.279 0.533,-0.268C0.542,-0.257 0.549,-0.242 0.555,-0.225C0.56,-0.208 0.566,-0.187 0.571,-0.164C0.58,-0.127 0.588,-0.096 0.597,-0.071C0.605,-0.045 0.617,-0.021 0.632,-0L0.523,-0ZM0.533,-0.473C0.533,-0.506 0.522,-0.533 0.5,-0.553C0.477,-0.572 0.44,-0.582 0.388,-0.582L0.185,-0.582L0.185,-0.349L0.388,-0.349C0.413,-0.349 0.434,-0.352 0.453,-0.359C0.471,-0.366 0.486,-0.375 0.498,-0.387C0.51,-0.398 0.519,-0.412 0.525,-0.427C0.53,-0.442 0.533,-0.457 0.533,-0.473Z" style="fill:white;fill-rule:nonzero;"/> </g> <g transform="matrix(65.833,0,0,65.833,164.122,0)"> <path d="M0.453,-0.13C0.452,-0.105 0.446,-0.084 0.436,-0.067C0.426,-0.049 0.413,-0.034 0.397,-0.023C0.38,-0.012 0.361,-0.003 0.34,0.002C0.319,0.007 0.296,0.01 0.272,0.01C0.237,0.01 0.206,0.005 0.178,-0.006C0.149,-0.016 0.125,-0.031 0.105,-0.052C0.085,-0.073 0.069,-0.098 0.059,-0.129C0.048,-0.159 0.042,-0.194 0.042,-0.233C0.042,-0.27 0.047,-0.303 0.058,-0.333C0.069,-0.363 0.084,-0.389 0.104,-0.41C0.123,-0.431 0.147,-0.448 0.174,-0.459C0.201,-0.47 0.23,-0.476 0.262,-0.476C0.321,-0.476 0.367,-0.46 0.4,-0.427C0.432,-0.393 0.448,-0.347 0.448,-0.286C0.448,-0.261 0.445,-0.235 0.439,-0.206L0.144,-0.206C0.144,-0.161 0.156,-0.126 0.181,-0.1C0.206,-0.073 0.238,-0.06 0.277,-0.06C0.308,-0.06 0.331,-0.068 0.346,-0.084C0.36,-0.1 0.368,-0.123 0.37,-0.153L0.453,-0.13ZM0.354,-0.273C0.356,-0.284 0.357,-0.294 0.357,-0.305C0.357,-0.336 0.349,-0.361 0.333,-0.38C0.317,-0.399 0.294,-0.408 0.263,-0.408C0.245,-0.408 0.229,-0.405 0.215,-0.398C0.201,-0.391 0.189,-0.381 0.179,-0.369C0.169,-0.356 0.161,-0.342 0.156,-0.326C0.15,-0.309 0.146,-0.292 0.145,-0.273L0.354,-0.273Z" style="fill:white;fill-rule:nonzero;"/> </g> <g transform="matrix(65.833,0,0,65.833,196.709,0)"> <path d="M0.302,-0.574C0.293,-0.582 0.283,-0.589 0.27,-0.595C0.257,-0.601 0.244,-0.604 0.231,-0.604C0.21,-0.604 0.196,-0.598 0.187,-0.587C0.178,-0.576 0.173,-0.56 0.173,-0.541C0.173,-0.53 0.174,-0.517 0.177,-0.504C0.18,-0.49 0.184,-0.477 0.189,-0.466L0.317,-0.466L0.317,-0.403L0.193,-0.403L0.193,-0L0.097,-0L0.097,-0.403L0.02,-0.403L0.02,-0.466L0.094,-0.466C0.085,-0.494 0.081,-0.52 0.081,-0.545C0.081,-0.584 0.092,-0.616 0.115,-0.64C0.137,-0.664 0.171,-0.676 0.217,-0.676C0.24,-0.676 0.262,-0.673 0.282,-0.666C0.302,-0.659 0.321,-0.647 0.338,-0.63L0.302,-0.574ZM0.403,-0.541L0.403,-0.666L0.499,-0.666L0.499,-0.541L0.403,-0.541ZM0.403,-0L0.403,-0.466L0.499,-0.466L0.499,-0L0.403,-0Z" style="fill:white;fill-rule:nonzero;"/> </g> <g transform="matrix(65.833,0,0,65.833,234.826,0)"> <path d="M0.398,-0L0.398,-0.284C0.398,-0.32 0.39,-0.347 0.375,-0.364C0.359,-0.381 0.337,-0.389 0.31,-0.389C0.289,-0.389 0.27,-0.383 0.253,-0.37C0.236,-0.357 0.222,-0.339 0.211,-0.317C0.2,-0.294 0.191,-0.268 0.185,-0.238C0.179,-0.207 0.176,-0.175 0.176,-0.141L0.176,-0L0.08,-0L0.08,-0.466L0.137,-0.466L0.161,-0.292C0.164,-0.317 0.169,-0.341 0.178,-0.364C0.187,-0.386 0.198,-0.405 0.213,-0.422C0.228,-0.439 0.245,-0.452 0.265,-0.462C0.284,-0.471 0.306,-0.476 0.331,-0.476C0.385,-0.476 0.426,-0.459 0.453,-0.426C0.48,-0.393 0.494,-0.348 0.494,-0.291L0.494,-0L0.398,-0Z" style="fill:white;fill-rule:nonzero;"/> </g> <g transform="matrix(65.833,0,0,65.833,272.285,0)"> <path d="M0.453,-0.13C0.452,-0.105 0.446,-0.084 0.436,-0.067C0.426,-0.049 0.413,-0.034 0.397,-0.023C0.38,-0.012 0.361,-0.003 0.34,0.002C0.319,0.007 0.296,0.01 0.272,0.01C0.237,0.01 0.206,0.005 0.178,-0.006C0.149,-0.016 0.125,-0.031 0.105,-0.052C0.085,-0.073 0.069,-0.098 0.059,-0.129C0.048,-0.159 0.042,-0.194 0.042,-0.233C0.042,-0.27 0.047,-0.303 0.058,-0.333C0.069,-0.363 0.084,-0.389 0.104,-0.41C0.123,-0.431 0.147,-0.448 0.174,-0.459C0.201,-0.47 0.23,-0.476 0.262,-0.476C0.321,-0.476 0.367,-0.46 0.4,-0.427C0.432,-0.393 0.448,-0.347 0.448,-0.286C0.448,-0.261 0.445,-0.235 0.439,-0.206L0.144,-0.206C0.144,-0.161 0.156,-0.126 0.181,-0.1C0.206,-0.073 0.238,-0.06 0.277,-0.06C0.308,-0.06 0.331,-0.068 0.346,-0.084C0.36,-0.1 0.368,-0.123 0.37,-0.153L0.453,-0.13ZM0.354,-0.273C0.356,-0.284 0.357,-0.294 0.357,-0.305C0.357,-0.336 0.349,-0.361 0.333,-0.38C0.317,-0.399 0.294,-0.408 0.263,-0.408C0.245,-0.408 0.229,-0.405 0.215,-0.398C0.201,-0.391 0.189,-0.381 0.179,-0.369C0.169,-0.356 0.161,-0.342 0.156,-0.326C0.15,-0.309 0.146,-0.292 0.145,-0.273L0.354,-0.273Z" style="fill:white;fill-rule:nonzero;"/> </g> <g transform="matrix(65.833,0,0,65.833,304.873,0)"> <path d="M0.398,-0L0.398,-0.284C0.398,-0.32 0.39,-0.347 0.375,-0.364C0.359,-0.381 0.337,-0.389 0.31,-0.389C0.289,-0.389 0.27,-0.383 0.253,-0.37C0.236,-0.357 0.222,-0.339 0.211,-0.317C0.2,-0.294 0.191,-0.268 0.185,-0.238C0.179,-0.207 0.176,-0.175 0.176,-0.141L0.176,-0L0.08,-0L0.08,-0.466L0.137,-0.466L0.161,-0.292C0.164,-0.317 0.169,-0.341 0.178,-0.364C0.187,-0.386 0.198,-0.405 0.213,-0.422C0.228,-0.439 0.245,-0.452 0.265,-0.462C0.284,-0.471 0.306,-0.476 0.331,-0.476C0.383,-0.476 0.422,-0.46 0.449,-0.429C0.475,-0.398 0.489,-0.356 0.491,-0.303C0.493,-0.328 0.498,-0.351 0.507,-0.372C0.516,-0.393 0.527,-0.412 0.541,-0.427C0.554,-0.442 0.57,-0.454 0.589,-0.463C0.607,-0.472 0.627,-0.476 0.649,-0.476C0.703,-0.476 0.744,-0.459 0.771,-0.426C0.798,-0.393 0.812,-0.348 0.812,-0.291L0.812,-0L0.716,-0L0.716,-0.284C0.716,-0.32 0.708,-0.347 0.693,-0.364C0.677,-0.381 0.655,-0.389 0.628,-0.389C0.606,-0.389 0.587,-0.383 0.57,-0.371C0.553,-0.358 0.539,-0.341 0.528,-0.319C0.517,-0.297 0.508,-0.271 0.503,-0.24C0.497,-0.209 0.494,-0.174 0.494,-0.137L0.494,-0L0.398,-0Z" style="fill:white;fill-rule:nonzero;"/> </g> <g transform="matrix(65.833,0,0,65.833,363.266,0)"> <path d="M0.453,-0.13C0.452,-0.105 0.446,-0.084 0.436,-0.067C0.426,-0.049 0.413,-0.034 0.397,-0.023C0.38,-0.012 0.361,-0.003 0.34,0.002C0.319,0.007 0.296,0.01 0.272,0.01C0.237,0.01 0.206,0.005 0.178,-0.006C0.149,-0.016 0.125,-0.031 0.105,-0.052C0.085,-0.073 0.069,-0.098 0.059,-0.129C0.048,-0.159 0.042,-0.194 0.042,-0.233C0.042,-0.27 0.047,-0.303 0.058,-0.333C0.069,-0.363 0.084,-0.389 0.104,-0.41C0.123,-0.431 0.147,-0.448 0.174,-0.459C0.201,-0.47 0.23,-0.476 0.262,-0.476C0.321,-0.476 0.367,-0.46 0.4,-0.427C0.432,-0.393 0.448,-0.347 0.448,-0.286C0.448,-0.261 0.445,-0.235 0.439,-0.206L0.144,-0.206C0.144,-0.161 0.156,-0.126 0.181,-0.1C0.206,-0.073 0.238,-0.06 0.277,-0.06C0.308,-0.06 0.331,-0.068 0.346,-0.084C0.36,-0.1 0.368,-0.123 0.37,-0.153L0.453,-0.13ZM0.354,-0.273C0.356,-0.284 0.357,-0.294 0.357,-0.305C0.357,-0.336 0.349,-0.361 0.333,-0.38C0.317,-0.399 0.294,-0.408 0.263,-0.408C0.245,-0.408 0.229,-0.405 0.215,-0.398C0.201,-0.391 0.189,-0.381 0.179,-0.369C0.169,-0.356 0.161,-0.342 0.156,-0.326C0.15,-0.309 0.146,-0.292 0.145,-0.273L0.354,-0.273Z" style="fill:white;fill-rule:nonzero;"/> </g> <g transform="matrix(65.833,0,0,65.833,395.854,0)"> <path d="M0.398,-0L0.398,-0.284C0.398,-0.32 0.39,-0.347 0.375,-0.364C0.359,-0.381 0.337,-0.389 0.31,-0.389C0.289,-0.389 0.27,-0.383 0.253,-0.37C0.236,-0.357 0.222,-0.339 0.211,-0.317C0.2,-0.294 0.191,-0.268 0.185,-0.238C0.179,-0.207 0.176,-0.175 0.176,-0.141L0.176,-0L0.08,-0L0.08,-0.466L0.137,-0.466L0.161,-0.292C0.164,-0.317 0.169,-0.341 0.178,-0.364C0.187,-0.386 0.198,-0.405 0.213,-0.422C0.228,-0.439 0.245,-0.452 0.265,-0.462C0.284,-0.471 0.306,-0.476 0.331,-0.476C0.385,-0.476 0.426,-0.459 0.453,-0.426C0.48,-0.393 0.494,-0.348 0.494,-0.291L0.494,-0L0.398,-0Z" style="fill:white;fill-rule:nonzero;"/> </g> <g transform="matrix(65.833,0,0,65.833,433.313,0)"> <path d="M0.309,-0.01C0.299,-0.004 0.285,0.001 0.268,0.005C0.25,0.008 0.232,0.01 0.215,0.01C0.17,0.01 0.137,-0.003 0.119,-0.028C0.099,-0.053 0.09,-0.086 0.09,-0.127L0.09,-0.403L0.01,-0.403L0.01,-0.466L0.09,-0.466L0.09,-0.598L0.186,-0.611L0.186,-0.466L0.307,-0.466L0.307,-0.403L0.186,-0.403L0.186,-0.127C0.186,-0.12 0.187,-0.112 0.188,-0.105C0.189,-0.098 0.192,-0.091 0.196,-0.085C0.199,-0.079 0.204,-0.074 0.211,-0.071C0.218,-0.067 0.227,-0.065 0.238,-0.065C0.249,-0.065 0.261,-0.066 0.274,-0.067C0.287,-0.068 0.299,-0.069 0.31,-0.072L0.309,-0.01Z" style="fill:white;fill-rule:nonzero;"/> </g> </g> </g> </g> <g transform="matrix(0.5,0.866025,-0.866025,0.5,812.318,40.2884)"> <g> <g transform="matrix(1,0,0,1,752.096,1216.31)"> <g transform="matrix(65.833,0,0,65.833,0,0)"> <path d="M0.656,-0.197C0.649,-0.172 0.639,-0.147 0.626,-0.122C0.613,-0.096 0.595,-0.074 0.573,-0.055C0.551,-0.035 0.524,-0.019 0.493,-0.007C0.461,0.006 0.423,0.012 0.38,0.012C0.323,0.012 0.273,0.003 0.231,-0.016C0.188,-0.034 0.153,-0.059 0.125,-0.091C0.097,-0.122 0.076,-0.159 0.063,-0.201C0.049,-0.242 0.042,-0.286 0.042,-0.333C0.042,-0.38 0.049,-0.424 0.063,-0.466C0.076,-0.507 0.097,-0.544 0.125,-0.576C0.152,-0.607 0.187,-0.632 0.228,-0.651C0.269,-0.669 0.316,-0.678 0.37,-0.678C0.441,-0.678 0.499,-0.661 0.544,-0.626C0.589,-0.591 0.619,-0.546 0.634,-0.49L0.537,-0.452C0.532,-0.47 0.525,-0.487 0.516,-0.504C0.507,-0.521 0.495,-0.536 0.481,-0.549C0.467,-0.562 0.451,-0.572 0.432,-0.58C0.413,-0.588 0.391,-0.592 0.367,-0.592C0.334,-0.592 0.304,-0.586 0.277,-0.574C0.25,-0.561 0.226,-0.544 0.207,-0.521C0.188,-0.498 0.173,-0.471 0.162,-0.439C0.151,-0.407 0.146,-0.372 0.146,-0.333C0.146,-0.294 0.151,-0.258 0.162,-0.227C0.173,-0.195 0.188,-0.168 0.208,-0.145C0.228,-0.122 0.253,-0.105 0.282,-0.093C0.311,-0.08 0.343,-0.074 0.38,-0.074C0.408,-0.074 0.432,-0.078 0.454,-0.086C0.474,-0.094 0.493,-0.105 0.508,-0.119C0.523,-0.133 0.535,-0.15 0.544,-0.169C0.553,-0.188 0.559,-0.21 0.564,-0.233L0.656,-0.197Z" style="fill:white;fill-rule:nonzero;"/> </g> <g transform="matrix(65.833,0,0,65.833,46.0173,0)"> <rect x="0.08" y="-0.666" width="0.096" height="0.666" style="fill:white;fill-rule:nonzero;"/> </g> <g transform="matrix(65.833,0,0,65.833,62.8705,0)"> <path d="M0.492,-0.233C0.492,-0.198 0.486,-0.165 0.474,-0.135C0.462,-0.105 0.446,-0.079 0.425,-0.058C0.404,-0.037 0.38,-0.02 0.353,-0.008C0.326,0.004 0.297,0.01 0.266,0.01C0.235,0.01 0.206,0.004 0.179,-0.008C0.152,-0.02 0.128,-0.037 0.107,-0.058C0.086,-0.079 0.07,-0.105 0.058,-0.135C0.046,-0.165 0.04,-0.198 0.04,-0.233C0.04,-0.268 0.046,-0.301 0.058,-0.331C0.07,-0.36 0.086,-0.386 0.107,-0.408C0.128,-0.429 0.152,-0.446 0.179,-0.458C0.206,-0.47 0.235,-0.476 0.266,-0.476C0.297,-0.476 0.326,-0.47 0.353,-0.458C0.38,-0.446 0.404,-0.429 0.425,-0.408C0.446,-0.386 0.462,-0.36 0.474,-0.331C0.486,-0.301 0.492,-0.268 0.492,-0.233ZM0.396,-0.233C0.396,-0.256 0.393,-0.278 0.387,-0.299C0.38,-0.319 0.371,-0.337 0.36,-0.352C0.348,-0.367 0.334,-0.378 0.318,-0.387C0.302,-0.396 0.285,-0.4 0.266,-0.4C0.247,-0.4 0.229,-0.396 0.214,-0.387C0.198,-0.378 0.184,-0.367 0.173,-0.352C0.161,-0.337 0.152,-0.319 0.146,-0.299C0.139,-0.278 0.136,-0.256 0.136,-0.233C0.136,-0.21 0.139,-0.188 0.146,-0.168C0.152,-0.147 0.161,-0.13 0.173,-0.115C0.184,-0.099 0.198,-0.088 0.214,-0.079C0.229,-0.07 0.247,-0.066 0.266,-0.066C0.285,-0.066 0.302,-0.07 0.318,-0.079C0.334,-0.088 0.348,-0.099 0.36,-0.115C0.371,-0.13 0.38,-0.147 0.387,-0.168C0.393,-0.188 0.396,-0.21 0.396,-0.233Z" style="fill:white;fill-rule:nonzero;"/> </g> <g transform="matrix(65.833,0,0,65.833,97.8937,0)"> <path d="M0.391,-0.335C0.37,-0.356 0.347,-0.373 0.323,-0.387C0.298,-0.4 0.27,-0.407 0.24,-0.407C0.217,-0.407 0.199,-0.403 0.184,-0.394C0.169,-0.385 0.161,-0.372 0.161,-0.353C0.161,-0.342 0.163,-0.334 0.166,-0.327C0.169,-0.32 0.175,-0.313 0.184,-0.308C0.193,-0.302 0.204,-0.296 0.219,-0.291C0.234,-0.286 0.252,-0.28 0.274,-0.273C0.303,-0.264 0.328,-0.255 0.349,-0.246C0.37,-0.237 0.386,-0.226 0.399,-0.215C0.412,-0.204 0.421,-0.191 0.427,-0.177C0.432,-0.163 0.435,-0.147 0.435,-0.128C0.435,-0.086 0.42,-0.053 0.39,-0.028C0.359,-0.003 0.315,0.01 0.256,0.01C0.234,0.01 0.213,0.007 0.193,0.002C0.172,-0.003 0.153,-0.01 0.136,-0.019C0.118,-0.028 0.102,-0.038 0.087,-0.05C0.072,-0.061 0.06,-0.073 0.05,-0.085L0.097,-0.14C0.118,-0.118 0.141,-0.099 0.169,-0.083C0.196,-0.067 0.227,-0.059 0.263,-0.059C0.29,-0.059 0.31,-0.064 0.323,-0.073C0.335,-0.082 0.341,-0.095 0.341,-0.11C0.341,-0.117 0.34,-0.123 0.337,-0.13C0.334,-0.137 0.329,-0.143 0.321,-0.15C0.313,-0.156 0.302,-0.162 0.288,-0.169C0.274,-0.175 0.256,-0.181 0.233,-0.187C0.198,-0.196 0.17,-0.207 0.149,-0.218C0.127,-0.229 0.11,-0.241 0.098,-0.254C0.086,-0.267 0.078,-0.281 0.074,-0.296C0.069,-0.311 0.067,-0.328 0.067,-0.346C0.067,-0.365 0.071,-0.383 0.08,-0.399C0.088,-0.415 0.1,-0.429 0.115,-0.44C0.13,-0.451 0.149,-0.46 0.17,-0.467C0.191,-0.473 0.214,-0.476 0.24,-0.476C0.281,-0.476 0.317,-0.469 0.349,-0.455C0.381,-0.441 0.411,-0.419 0.439,-0.389L0.391,-0.335Z" style="fill:white;fill-rule:nonzero;"/> </g> <g transform="matrix(65.833,0,0,65.833,129.559,0)"> <path d="M0.08,-0.541L0.08,-0.666L0.176,-0.666L0.176,-0.541L0.08,-0.541ZM0.08,-0L0.08,-0.466L0.176,-0.466L0.176,-0L0.08,-0Z" style="fill:white;fill-rule:nonzero;"/> </g> <g transform="matrix(65.833,0,0,65.833,146.413,0)"> <path d="M0.398,-0L0.398,-0.284C0.398,-0.32 0.39,-0.347 0.375,-0.364C0.359,-0.381 0.337,-0.389 0.31,-0.389C0.289,-0.389 0.27,-0.383 0.253,-0.37C0.236,-0.357 0.222,-0.339 0.211,-0.317C0.2,-0.294 0.191,-0.268 0.185,-0.238C0.179,-0.207 0.176,-0.175 0.176,-0.141L0.176,-0L0.08,-0L0.08,-0.466L0.137,-0.466L0.161,-0.292C0.164,-0.317 0.169,-0.341 0.178,-0.364C0.187,-0.386 0.198,-0.405 0.213,-0.422C0.228,-0.439 0.245,-0.452 0.265,-0.462C0.284,-0.471 0.306,-0.476 0.331,-0.476C0.385,-0.476 0.426,-0.459 0.453,-0.426C0.48,-0.393 0.494,-0.348 0.494,-0.291L0.494,-0L0.398,-0Z" style="fill:white;fill-rule:nonzero;"/> </g> <g transform="matrix(65.833,0,0,65.833,183.872,0)"> <path d="M0.28,-0.167C0.241,-0.167 0.206,-0.173 0.177,-0.186C0.169,-0.182 0.162,-0.177 0.155,-0.17C0.148,-0.163 0.144,-0.155 0.144,-0.146C0.144,-0.13 0.152,-0.119 0.167,-0.113C0.182,-0.107 0.201,-0.104 0.223,-0.104L0.322,-0.104C0.393,-0.104 0.444,-0.092 0.475,-0.069C0.506,-0.046 0.521,-0.014 0.521,0.026C0.521,0.05 0.515,0.071 0.502,0.09C0.489,0.109 0.472,0.124 0.45,0.137C0.428,0.149 0.402,0.158 0.372,0.165C0.341,0.171 0.308,0.174 0.273,0.174C0.238,0.174 0.205,0.172 0.175,0.168C0.145,0.163 0.119,0.156 0.098,0.146C0.076,0.136 0.059,0.123 0.047,0.108C0.034,0.093 0.028,0.074 0.028,0.052C0.028,0.023 0.04,0.001 0.064,-0.015C0.087,-0.031 0.12,-0.04 0.163,-0.041C0.129,-0.048 0.102,-0.058 0.082,-0.071C0.062,-0.084 0.052,-0.104 0.052,-0.13C0.052,-0.15 0.061,-0.166 0.08,-0.179C0.098,-0.192 0.119,-0.2 0.143,-0.204C0.123,-0.218 0.108,-0.235 0.097,-0.255C0.086,-0.275 0.08,-0.297 0.08,-0.321C0.08,-0.344 0.085,-0.364 0.095,-0.383C0.104,-0.402 0.118,-0.418 0.136,-0.432C0.153,-0.445 0.174,-0.456 0.199,-0.464C0.223,-0.471 0.25,-0.475 0.28,-0.475C0.315,-0.475 0.347,-0.469 0.376,-0.458C0.384,-0.469 0.388,-0.48 0.388,-0.492C0.388,-0.512 0.379,-0.526 0.36,-0.534L0.424,-0.583C0.439,-0.576 0.45,-0.568 0.457,-0.559C0.464,-0.55 0.467,-0.537 0.467,-0.522C0.467,-0.507 0.463,-0.493 0.454,-0.479C0.444,-0.464 0.43,-0.452 0.409,-0.442C0.432,-0.428 0.449,-0.411 0.462,-0.39C0.474,-0.369 0.48,-0.346 0.48,-0.321C0.48,-0.301 0.475,-0.282 0.467,-0.264C0.458,-0.245 0.444,-0.229 0.428,-0.215C0.411,-0.2 0.39,-0.189 0.365,-0.18C0.34,-0.171 0.312,-0.167 0.28,-0.167ZM0.425,0.034C0.425,0.015 0.417,-0 0.402,-0.011C0.386,-0.021 0.362,-0.026 0.33,-0.026L0.255,-0.026C0.214,-0.026 0.182,-0.021 0.161,-0.01C0.139,0.001 0.128,0.018 0.128,0.041C0.128,0.066 0.141,0.085 0.168,0.098C0.195,0.11 0.231,0.116 0.276,0.116C0.323,0.116 0.36,0.109 0.386,0.094C0.412,0.079 0.425,0.059 0.425,0.034ZM0.382,-0.321C0.382,-0.345 0.373,-0.366 0.356,-0.385C0.338,-0.404 0.313,-0.413 0.28,-0.413C0.247,-0.413 0.222,-0.404 0.205,-0.385C0.187,-0.366 0.178,-0.345 0.178,-0.321C0.178,-0.297 0.187,-0.276 0.205,-0.257C0.222,-0.238 0.247,-0.229 0.28,-0.229C0.313,-0.229 0.338,-0.238 0.356,-0.257C0.373,-0.276 0.382,-0.297 0.382,-0.321Z" style="fill:white;fill-rule:nonzero;"/> </g> <g transform="matrix(65.833,0,0,65.833,233.115,0)"> <path d="M0.176,-0.573L0.176,-0L0.085,-0L0.085,-0.666L0.227,-0.666L0.435,-0.105L0.643,-0.666L0.785,-0.666L0.785,-0L0.694,-0L0.694,-0.573L0.477,-0L0.393,-0L0.176,-0.573Z" style="fill:white;fill-rule:nonzero;"/> </g> <g transform="matrix(65.833,0,0,65.833,290.389,0)"> <path d="M0.522,-0.012C0.518,-0.007 0.511,-0.003 0.502,0.002C0.493,0.006 0.482,0.008 0.47,0.008C0.438,0.008 0.413,-0 0.396,-0.017C0.378,-0.033 0.369,-0.057 0.368,-0.088C0.353,-0.056 0.333,-0.032 0.308,-0.015C0.283,0.002 0.249,0.01 0.206,0.01C0.162,0.01 0.127,-0.001 0.101,-0.022C0.075,-0.043 0.062,-0.074 0.062,-0.113C0.062,-0.16 0.081,-0.195 0.119,-0.217C0.157,-0.238 0.209,-0.249 0.275,-0.249C0.288,-0.249 0.301,-0.249 0.315,-0.248C0.328,-0.247 0.342,-0.245 0.357,-0.244L0.357,-0.297C0.357,-0.331 0.35,-0.357 0.335,-0.376C0.32,-0.395 0.295,-0.404 0.26,-0.404C0.227,-0.404 0.202,-0.398 0.183,-0.387C0.164,-0.376 0.155,-0.36 0.155,-0.339C0.155,-0.326 0.158,-0.314 0.165,-0.301L0.079,-0.267C0.07,-0.29 0.065,-0.311 0.065,-0.331C0.065,-0.352 0.07,-0.371 0.079,-0.389C0.088,-0.406 0.1,-0.422 0.118,-0.435C0.135,-0.448 0.155,-0.458 0.18,-0.465C0.205,-0.472 0.232,-0.476 0.263,-0.476C0.298,-0.476 0.328,-0.471 0.352,-0.462C0.376,-0.452 0.396,-0.439 0.411,-0.422C0.426,-0.405 0.436,-0.384 0.443,-0.361C0.45,-0.338 0.453,-0.312 0.453,-0.284L0.453,-0.112C0.453,-0.097 0.456,-0.084 0.461,-0.074C0.466,-0.063 0.478,-0.058 0.497,-0.058C0.504,-0.058 0.509,-0.058 0.512,-0.059C0.515,-0.06 0.519,-0.061 0.522,-0.062L0.522,-0.012ZM0.357,-0.198C0.318,-0.196 0.285,-0.193 0.26,-0.188C0.234,-0.183 0.214,-0.178 0.199,-0.171C0.184,-0.164 0.173,-0.155 0.167,-0.145C0.161,-0.134 0.158,-0.122 0.158,-0.109C0.158,-0.094 0.163,-0.082 0.173,-0.072C0.183,-0.061 0.199,-0.056 0.222,-0.056C0.262,-0.056 0.295,-0.068 0.32,-0.093C0.345,-0.117 0.357,-0.15 0.357,-0.193L0.357,-0.198Z" style="fill:white;fill-rule:nonzero;"/> </g> <g transform="matrix(65.833,0,0,65.833,326.334,0)"> <path d="M0.391,-0.335C0.37,-0.356 0.347,-0.373 0.323,-0.387C0.298,-0.4 0.27,-0.407 0.24,-0.407C0.217,-0.407 0.199,-0.403 0.184,-0.394C0.169,-0.385 0.161,-0.372 0.161,-0.353C0.161,-0.342 0.163,-0.334 0.166,-0.327C0.169,-0.32 0.175,-0.313 0.184,-0.308C0.193,-0.302 0.204,-0.296 0.219,-0.291C0.234,-0.286 0.252,-0.28 0.274,-0.273C0.303,-0.264 0.328,-0.255 0.349,-0.246C0.37,-0.237 0.386,-0.226 0.399,-0.215C0.412,-0.204 0.421,-0.191 0.427,-0.177C0.432,-0.163 0.435,-0.147 0.435,-0.128C0.435,-0.086 0.42,-0.053 0.39,-0.028C0.359,-0.003 0.315,0.01 0.256,0.01C0.234,0.01 0.213,0.007 0.193,0.002C0.172,-0.003 0.153,-0.01 0.136,-0.019C0.118,-0.028 0.102,-0.038 0.087,-0.05C0.072,-0.061 0.06,-0.073 0.05,-0.085L0.097,-0.14C0.118,-0.118 0.141,-0.099 0.169,-0.083C0.196,-0.067 0.227,-0.059 0.263,-0.059C0.29,-0.059 0.31,-0.064 0.323,-0.073C0.335,-0.082 0.341,-0.095 0.341,-0.11C0.341,-0.117 0.34,-0.123 0.337,-0.13C0.334,-0.137 0.329,-0.143 0.321,-0.15C0.313,-0.156 0.302,-0.162 0.288,-0.169C0.274,-0.175 0.256,-0.181 0.233,-0.187C0.198,-0.196 0.17,-0.207 0.149,-0.218C0.127,-0.229 0.11,-0.241 0.098,-0.254C0.086,-0.267 0.078,-0.281 0.074,-0.296C0.069,-0.311 0.067,-0.328 0.067,-0.346C0.067,-0.365 0.071,-0.383 0.08,-0.399C0.088,-0.415 0.1,-0.429 0.115,-0.44C0.13,-0.451 0.149,-0.46 0.17,-0.467C0.191,-0.473 0.214,-0.476 0.24,-0.476C0.281,-0.476 0.317,-0.469 0.349,-0.455C0.381,-0.441 0.411,-0.419 0.439,-0.389L0.391,-0.335Z" style="fill:white;fill-rule:nonzero;"/> </g> <g transform="matrix(65.833,0,0,65.833,358,0)"> <path d="M0.309,-0.01C0.299,-0.004 0.285,0.001 0.268,0.005C0.25,0.008 0.232,0.01 0.215,0.01C0.17,0.01 0.137,-0.003 0.119,-0.028C0.099,-0.053 0.09,-0.086 0.09,-0.127L0.09,-0.403L0.01,-0.403L0.01,-0.466L0.09,-0.466L0.09,-0.598L0.186,-0.611L0.186,-0.466L0.307,-0.466L0.307,-0.403L0.186,-0.403L0.186,-0.127C0.186,-0.12 0.187,-0.112 0.188,-0.105C0.189,-0.098 0.192,-0.091 0.196,-0.085C0.199,-0.079 0.204,-0.074 0.211,-0.071C0.218,-0.067 0.227,-0.065 0.238,-0.065C0.249,-0.065 0.261,-0.066 0.274,-0.067C0.287,-0.068 0.299,-0.069 0.31,-0.072L0.309,-0.01Z" style="fill:white;fill-rule:nonzero;"/> </g> <g transform="matrix(65.833,0,0,65.833,380.383,0)"> <path d="M0.453,-0.13C0.452,-0.105 0.446,-0.084 0.436,-0.067C0.426,-0.049 0.413,-0.034 0.397,-0.023C0.38,-0.012 0.361,-0.003 0.34,0.002C0.319,0.007 0.296,0.01 0.272,0.01C0.237,0.01 0.206,0.005 0.178,-0.006C0.149,-0.016 0.125,-0.031 0.105,-0.052C0.085,-0.073 0.069,-0.098 0.059,-0.129C0.048,-0.159 0.042,-0.194 0.042,-0.233C0.042,-0.27 0.047,-0.303 0.058,-0.333C0.069,-0.363 0.084,-0.389 0.104,-0.41C0.123,-0.431 0.147,-0.448 0.174,-0.459C0.201,-0.47 0.23,-0.476 0.262,-0.476C0.321,-0.476 0.367,-0.46 0.4,-0.427C0.432,-0.393 0.448,-0.347 0.448,-0.286C0.448,-0.261 0.445,-0.235 0.439,-0.206L0.144,-0.206C0.144,-0.161 0.156,-0.126 0.181,-0.1C0.206,-0.073 0.238,-0.06 0.277,-0.06C0.308,-0.06 0.331,-0.068 0.346,-0.084C0.36,-0.1 0.368,-0.123 0.37,-0.153L0.453,-0.13ZM0.354,-0.273C0.356,-0.284 0.357,-0.294 0.357,-0.305C0.357,-0.336 0.349,-0.361 0.333,-0.38C0.317,-0.399 0.294,-0.408 0.263,-0.408C0.245,-0.408 0.229,-0.405 0.215,-0.398C0.201,-0.391 0.189,-0.381 0.179,-0.369C0.169,-0.356 0.161,-0.342 0.156,-0.326C0.15,-0.309 0.146,-0.292 0.145,-0.273L0.354,-0.273Z" style="fill:white;fill-rule:nonzero;"/> </g> <g transform="matrix(65.833,0,0,65.833,412.97,0)"> <path d="M0.302,-0.476C0.338,-0.476 0.365,-0.466 0.382,-0.446C0.399,-0.425 0.408,-0.399 0.408,-0.367C0.408,-0.352 0.406,-0.335 0.402,-0.318C0.398,-0.301 0.392,-0.283 0.383,-0.266L0.298,-0.262C0.303,-0.273 0.307,-0.287 0.312,-0.302C0.317,-0.317 0.319,-0.333 0.319,-0.348C0.319,-0.361 0.316,-0.373 0.31,-0.383C0.304,-0.392 0.293,-0.397 0.277,-0.397C0.259,-0.397 0.244,-0.388 0.231,-0.37C0.218,-0.351 0.208,-0.328 0.2,-0.3C0.191,-0.271 0.185,-0.24 0.182,-0.206C0.178,-0.171 0.176,-0.138 0.176,-0.106L0.176,-0L0.08,-0L0.08,-0.466L0.138,-0.466L0.165,-0.277C0.168,-0.341 0.182,-0.39 0.205,-0.425C0.228,-0.459 0.26,-0.476 0.302,-0.476Z" style="fill:white;fill-rule:nonzero;"/> </g> </g> <g transform="matrix(1,0,0,1,1193.9,1216.31)"> <g transform="matrix(65.833,0,0,65.833,0,0)"> <path d="M0.018,0.094C0.025,0.097 0.032,0.099 0.04,0.101C0.047,0.102 0.054,0.103 0.061,0.103C0.077,0.103 0.09,0.101 0.101,0.098C0.111,0.095 0.121,0.089 0.13,0.08C0.139,0.071 0.147,0.058 0.156,0.041C0.164,0.024 0.174,0.002 0.186,-0.025L0,-0.466L0.098,-0.466L0.231,-0.115L0.364,-0.466L0.462,-0.466C0.432,-0.395 0.404,-0.328 0.377,-0.267C0.366,-0.241 0.354,-0.215 0.343,-0.188C0.332,-0.161 0.321,-0.135 0.311,-0.111C0.3,-0.087 0.291,-0.065 0.282,-0.046C0.273,-0.027 0.267,-0.011 0.262,-0C0.246,0.035 0.232,0.064 0.219,0.087C0.206,0.109 0.192,0.127 0.179,0.14C0.165,0.153 0.15,0.162 0.134,0.167C0.117,0.172 0.098,0.174 0.075,0.174C0.066,0.174 0.055,0.173 0.043,0.171C0.031,0.169 0.021,0.165 0.014,0.16L0.018,0.094Z" style="fill:white;fill-rule:nonzero;"/> </g> </g> </g> </g> <g> <g transform="matrix(1,0,0,1,524.513,1820.3)"> <g transform="matrix(65.833,0,0,65.833,0,0)"> <path d="M0.523,-0C0.514,-0.015 0.506,-0.033 0.499,-0.052C0.492,-0.071 0.486,-0.091 0.48,-0.112C0.478,-0.12 0.467,-0.161 0.464,-0.172C0.461,-0.182 0.452,-0.217 0.451,-0.222C0.442,-0.253 0.421,-0.268 0.387,-0.268L0.185,-0.268L0.185,-0L0.085,-0L0.085,-0.666L0.406,-0.666C0.447,-0.666 0.481,-0.661 0.51,-0.651C0.539,-0.64 0.562,-0.627 0.58,-0.61C0.598,-0.592 0.611,-0.573 0.62,-0.551C0.628,-0.529 0.632,-0.507 0.632,-0.484C0.632,-0.458 0.627,-0.435 0.618,-0.414C0.609,-0.393 0.596,-0.376 0.58,-0.361C0.563,-0.346 0.544,-0.334 0.522,-0.325C0.499,-0.316 0.475,-0.309 0.448,-0.306C0.469,-0.305 0.486,-0.301 0.499,-0.295C0.512,-0.288 0.524,-0.279 0.533,-0.268C0.542,-0.257 0.549,-0.242 0.555,-0.225C0.56,-0.208 0.566,-0.187 0.571,-0.164C0.58,-0.127 0.588,-0.096 0.597,-0.071C0.605,-0.045 0.617,-0.021 0.632,-0L0.523,-0ZM0.533,-0.473C0.533,-0.506 0.522,-0.533 0.5,-0.553C0.477,-0.572 0.44,-0.582 0.388,-0.582L0.185,-0.582L0.185,-0.349L0.388,-0.349C0.413,-0.349 0.434,-0.352 0.453,-0.359C0.471,-0.366 0.486,-0.375 0.498,-0.387C0.51,-0.398 0.519,-0.412 0.525,-0.427C0.53,-0.442 0.533,-0.457 0.533,-0.473Z" style="fill:white;fill-rule:nonzero;"/> </g> <g transform="matrix(65.833,0,0,65.833,44.8981,0)"> <path d="M0.453,-0.13C0.452,-0.105 0.446,-0.084 0.436,-0.067C0.426,-0.049 0.413,-0.034 0.397,-0.023C0.38,-0.012 0.361,-0.003 0.34,0.002C0.319,0.007 0.296,0.01 0.272,0.01C0.237,0.01 0.206,0.005 0.178,-0.006C0.149,-0.016 0.125,-0.031 0.105,-0.052C0.085,-0.073 0.069,-0.098 0.059,-0.129C0.048,-0.159 0.042,-0.194 0.042,-0.233C0.042,-0.27 0.047,-0.303 0.058,-0.333C0.069,-0.363 0.084,-0.389 0.104,-0.41C0.123,-0.431 0.147,-0.448 0.174,-0.459C0.201,-0.47 0.23,-0.476 0.262,-0.476C0.321,-0.476 0.367,-0.46 0.4,-0.427C0.432,-0.393 0.448,-0.347 0.448,-0.286C0.448,-0.261 0.445,-0.235 0.439,-0.206L0.144,-0.206C0.144,-0.161 0.156,-0.126 0.181,-0.1C0.206,-0.073 0.238,-0.06 0.277,-0.06C0.308,-0.06 0.331,-0.068 0.346,-0.084C0.36,-0.1 0.368,-0.123 0.37,-0.153L0.453,-0.13ZM0.354,-0.273C0.356,-0.284 0.357,-0.294 0.357,-0.305C0.357,-0.336 0.349,-0.361 0.333,-0.38C0.317,-0.399 0.294,-0.408 0.263,-0.408C0.245,-0.408 0.229,-0.405 0.215,-0.398C0.201,-0.391 0.189,-0.381 0.179,-0.369C0.169,-0.356 0.161,-0.342 0.156,-0.326C0.15,-0.309 0.146,-0.292 0.145,-0.273L0.354,-0.273Z" style="fill:white;fill-rule:nonzero;"/> </g> <g transform="matrix(65.833,0,0,65.833,77.4854,0)"> <path d="M0.515,-0.233C0.515,-0.2 0.511,-0.168 0.503,-0.139C0.495,-0.11 0.483,-0.084 0.468,-0.062C0.452,-0.04 0.433,-0.023 0.41,-0.01C0.387,0.004 0.36,0.01 0.33,0.01C0.309,0.01 0.291,0.007 0.274,-0C0.257,-0.007 0.241,-0.016 0.228,-0.027C0.215,-0.038 0.204,-0.05 0.195,-0.063C0.186,-0.076 0.18,-0.09 0.176,-0.104L0.176,0.164L0.08,0.164L0.08,-0.466L0.137,-0.466L0.159,-0.332C0.16,-0.346 0.165,-0.362 0.173,-0.379C0.181,-0.396 0.192,-0.411 0.205,-0.426C0.218,-0.44 0.235,-0.452 0.254,-0.462C0.273,-0.471 0.295,-0.476 0.319,-0.476C0.352,-0.476 0.38,-0.47 0.405,-0.457C0.429,-0.444 0.449,-0.426 0.466,-0.404C0.482,-0.382 0.494,-0.356 0.503,-0.327C0.511,-0.298 0.515,-0.266 0.515,-0.233ZM0.419,-0.233C0.419,-0.283 0.409,-0.323 0.388,-0.353C0.367,-0.383 0.338,-0.398 0.301,-0.398C0.284,-0.398 0.269,-0.394 0.254,-0.387C0.239,-0.379 0.225,-0.368 0.214,-0.353C0.202,-0.338 0.193,-0.321 0.186,-0.301C0.179,-0.28 0.176,-0.258 0.176,-0.233C0.176,-0.21 0.179,-0.188 0.186,-0.168C0.193,-0.148 0.202,-0.131 0.213,-0.116C0.224,-0.101 0.238,-0.09 0.253,-0.081C0.268,-0.072 0.283,-0.068 0.3,-0.068C0.318,-0.068 0.334,-0.072 0.349,-0.08C0.364,-0.088 0.376,-0.099 0.387,-0.114C0.397,-0.129 0.405,-0.146 0.411,-0.167C0.416,-0.187 0.419,-0.209 0.419,-0.233Z" style="fill:white;fill-rule:nonzero;"/> </g> </g> <g transform="matrix(1,0,0,1,638.668,1820.3)"> <g transform="matrix(65.833,0,0,65.833,0,0)"> <path d="M0.453,-0.13C0.452,-0.105 0.446,-0.084 0.436,-0.067C0.426,-0.049 0.413,-0.034 0.397,-0.023C0.38,-0.012 0.361,-0.003 0.34,0.002C0.319,0.007 0.296,0.01 0.272,0.01C0.237,0.01 0.206,0.005 0.178,-0.006C0.149,-0.016 0.125,-0.031 0.105,-0.052C0.085,-0.073 0.069,-0.098 0.059,-0.129C0.048,-0.159 0.042,-0.194 0.042,-0.233C0.042,-0.27 0.047,-0.303 0.058,-0.333C0.069,-0.363 0.084,-0.389 0.104,-0.41C0.123,-0.431 0.147,-0.448 0.174,-0.459C0.201,-0.47 0.23,-0.476 0.262,-0.476C0.321,-0.476 0.367,-0.46 0.4,-0.427C0.432,-0.393 0.448,-0.347 0.448,-0.286C0.448,-0.261 0.445,-0.235 0.439,-0.206L0.144,-0.206C0.144,-0.161 0.156,-0.126 0.181,-0.1C0.206,-0.073 0.238,-0.06 0.277,-0.06C0.308,-0.06 0.331,-0.068 0.346,-0.084C0.36,-0.1 0.368,-0.123 0.37,-0.153L0.453,-0.13ZM0.354,-0.273C0.356,-0.284 0.357,-0.294 0.357,-0.305C0.357,-0.336 0.349,-0.361 0.333,-0.38C0.317,-0.399 0.294,-0.408 0.263,-0.408C0.245,-0.408 0.229,-0.405 0.215,-0.398C0.201,-0.391 0.189,-0.381 0.179,-0.369C0.169,-0.356 0.161,-0.342 0.156,-0.326C0.15,-0.309 0.146,-0.292 0.145,-0.273L0.354,-0.273Z" style="fill:white;fill-rule:nonzero;"/> </g> <g transform="matrix(65.833,0,0,65.833,32.5873,0)"> <path d="M0.522,-0.012C0.518,-0.007 0.511,-0.003 0.502,0.002C0.493,0.006 0.482,0.008 0.47,0.008C0.438,0.008 0.413,-0 0.396,-0.017C0.378,-0.033 0.369,-0.057 0.368,-0.088C0.353,-0.056 0.333,-0.032 0.308,-0.015C0.283,0.002 0.249,0.01 0.206,0.01C0.162,0.01 0.127,-0.001 0.101,-0.022C0.075,-0.043 0.062,-0.074 0.062,-0.113C0.062,-0.16 0.081,-0.195 0.119,-0.217C0.157,-0.238 0.209,-0.249 0.275,-0.249C0.288,-0.249 0.301,-0.249 0.315,-0.248C0.328,-0.247 0.342,-0.245 0.357,-0.244L0.357,-0.297C0.357,-0.331 0.35,-0.357 0.335,-0.376C0.32,-0.395 0.295,-0.404 0.26,-0.404C0.227,-0.404 0.202,-0.398 0.183,-0.387C0.164,-0.376 0.155,-0.36 0.155,-0.339C0.155,-0.326 0.158,-0.314 0.165,-0.301L0.079,-0.267C0.07,-0.29 0.065,-0.311 0.065,-0.331C0.065,-0.352 0.07,-0.371 0.079,-0.389C0.088,-0.406 0.1,-0.422 0.118,-0.435C0.135,-0.448 0.155,-0.458 0.18,-0.465C0.205,-0.472 0.232,-0.476 0.263,-0.476C0.298,-0.476 0.328,-0.471 0.352,-0.462C0.376,-0.452 0.396,-0.439 0.411,-0.422C0.426,-0.405 0.436,-0.384 0.443,-0.361C0.45,-0.338 0.453,-0.312 0.453,-0.284L0.453,-0.112C0.453,-0.097 0.456,-0.084 0.461,-0.074C0.466,-0.063 0.478,-0.058 0.497,-0.058C0.504,-0.058 0.509,-0.058 0.512,-0.059C0.515,-0.06 0.519,-0.061 0.522,-0.062L0.522,-0.012ZM0.357,-0.198C0.318,-0.196 0.285,-0.193 0.26,-0.188C0.234,-0.183 0.214,-0.178 0.199,-0.171C0.184,-0.164 0.173,-0.155 0.167,-0.145C0.161,-0.134 0.158,-0.122 0.158,-0.109C0.158,-0.094 0.163,-0.082 0.173,-0.072C0.183,-0.061 0.199,-0.056 0.222,-0.056C0.262,-0.056 0.295,-0.068 0.32,-0.093C0.345,-0.117 0.357,-0.15 0.357,-0.193L0.357,-0.198Z" style="fill:white;fill-rule:nonzero;"/> </g> <g transform="matrix(65.833,0,0,65.833,68.5322,0)"> <path d="M0.309,-0.01C0.299,-0.004 0.285,0.001 0.268,0.005C0.25,0.008 0.232,0.01 0.215,0.01C0.17,0.01 0.137,-0.003 0.119,-0.028C0.099,-0.053 0.09,-0.086 0.09,-0.127L0.09,-0.403L0.01,-0.403L0.01,-0.466L0.09,-0.466L0.09,-0.598L0.186,-0.611L0.186,-0.466L0.307,-0.466L0.307,-0.403L0.186,-0.403L0.186,-0.127C0.186,-0.12 0.187,-0.112 0.188,-0.105C0.189,-0.098 0.192,-0.091 0.196,-0.085C0.199,-0.079 0.204,-0.074 0.211,-0.071C0.218,-0.067 0.227,-0.065 0.238,-0.065C0.249,-0.065 0.261,-0.066 0.274,-0.067C0.287,-0.068 0.299,-0.069 0.31,-0.072L0.309,-0.01Z" style="fill:white;fill-rule:nonzero;"/> </g> <g transform="matrix(65.833,0,0,65.833,105.069,0)"> <path d="M0.523,-0C0.514,-0.015 0.506,-0.033 0.499,-0.052C0.492,-0.071 0.486,-0.091 0.48,-0.112C0.478,-0.12 0.467,-0.161 0.464,-0.172C0.461,-0.182 0.452,-0.217 0.451,-0.222C0.442,-0.253 0.421,-0.268 0.387,-0.268L0.185,-0.268L0.185,-0L0.085,-0L0.085,-0.666L0.406,-0.666C0.447,-0.666 0.481,-0.661 0.51,-0.651C0.539,-0.64 0.562,-0.627 0.58,-0.61C0.598,-0.592 0.611,-0.573 0.62,-0.551C0.628,-0.529 0.632,-0.507 0.632,-0.484C0.632,-0.458 0.627,-0.435 0.618,-0.414C0.609,-0.393 0.596,-0.376 0.58,-0.361C0.563,-0.346 0.544,-0.334 0.522,-0.325C0.499,-0.316 0.475,-0.309 0.448,-0.306C0.469,-0.305 0.486,-0.301 0.499,-0.295C0.512,-0.288 0.524,-0.279 0.533,-0.268C0.542,-0.257 0.549,-0.242 0.555,-0.225C0.56,-0.208 0.566,-0.187 0.571,-0.164C0.58,-0.127 0.588,-0.096 0.597,-0.071C0.605,-0.045 0.617,-0.021 0.632,-0L0.523,-0ZM0.533,-0.473C0.533,-0.506 0.522,-0.533 0.5,-0.553C0.477,-0.572 0.44,-0.582 0.388,-0.582L0.185,-0.582L0.185,-0.349L0.388,-0.349C0.413,-0.349 0.434,-0.352 0.453,-0.359C0.471,-0.366 0.486,-0.375 0.498,-0.387C0.51,-0.398 0.519,-0.412 0.525,-0.427C0.53,-0.442 0.533,-0.457 0.533,-0.473Z" style="fill:white;fill-rule:nonzero;"/> </g> <g transform="matrix(65.833,0,0,65.833,149.968,0)"> <path d="M0.453,-0.13C0.452,-0.105 0.446,-0.084 0.436,-0.067C0.426,-0.049 0.413,-0.034 0.397,-0.023C0.38,-0.012 0.361,-0.003 0.34,0.002C0.319,0.007 0.296,0.01 0.272,0.01C0.237,0.01 0.206,0.005 0.178,-0.006C0.149,-0.016 0.125,-0.031 0.105,-0.052C0.085,-0.073 0.069,-0.098 0.059,-0.129C0.048,-0.159 0.042,-0.194 0.042,-0.233C0.042,-0.27 0.047,-0.303 0.058,-0.333C0.069,-0.363 0.084,-0.389 0.104,-0.41C0.123,-0.431 0.147,-0.448 0.174,-0.459C0.201,-0.47 0.23,-0.476 0.262,-0.476C0.321,-0.476 0.367,-0.46 0.4,-0.427C0.432,-0.393 0.448,-0.347 0.448,-0.286C0.448,-0.261 0.445,-0.235 0.439,-0.206L0.144,-0.206C0.144,-0.161 0.156,-0.126 0.181,-0.1C0.206,-0.073 0.238,-0.06 0.277,-0.06C0.308,-0.06 0.331,-0.068 0.346,-0.084C0.36,-0.1 0.368,-0.123 0.37,-0.153L0.453,-0.13ZM0.354,-0.273C0.356,-0.284 0.357,-0.294 0.357,-0.305C0.357,-0.336 0.349,-0.361 0.333,-0.38C0.317,-0.399 0.294,-0.408 0.263,-0.408C0.245,-0.408 0.229,-0.405 0.215,-0.398C0.201,-0.391 0.189,-0.381 0.179,-0.369C0.169,-0.356 0.161,-0.342 0.156,-0.326C0.15,-0.309 0.146,-0.292 0.145,-0.273L0.354,-0.273Z" style="fill:white;fill-rule:nonzero;"/> </g> <g transform="matrix(65.833,0,0,65.833,182.555,0)"> <path d="M0.265,-0L0.197,-0L0,-0.466L0.098,-0.466L0.231,-0.113L0.364,-0.466L0.462,-0.466L0.265,-0Z" style="fill:white;fill-rule:nonzero;"/> </g> <g transform="matrix(65.833,0,0,65.833,212.97,0)"> <path d="M0.453,-0.13C0.452,-0.105 0.446,-0.084 0.436,-0.067C0.426,-0.049 0.413,-0.034 0.397,-0.023C0.38,-0.012 0.361,-0.003 0.34,0.002C0.319,0.007 0.296,0.01 0.272,0.01C0.237,0.01 0.206,0.005 0.178,-0.006C0.149,-0.016 0.125,-0.031 0.105,-0.052C0.085,-0.073 0.069,-0.098 0.059,-0.129C0.048,-0.159 0.042,-0.194 0.042,-0.233C0.042,-0.27 0.047,-0.303 0.058,-0.333C0.069,-0.363 0.084,-0.389 0.104,-0.41C0.123,-0.431 0.147,-0.448 0.174,-0.459C0.201,-0.47 0.23,-0.476 0.262,-0.476C0.321,-0.476 0.367,-0.46 0.4,-0.427C0.432,-0.393 0.448,-0.347 0.448,-0.286C0.448,-0.261 0.445,-0.235 0.439,-0.206L0.144,-0.206C0.144,-0.161 0.156,-0.126 0.181,-0.1C0.206,-0.073 0.238,-0.06 0.277,-0.06C0.308,-0.06 0.331,-0.068 0.346,-0.084C0.36,-0.1 0.368,-0.123 0.37,-0.153L0.453,-0.13ZM0.354,-0.273C0.356,-0.284 0.357,-0.294 0.357,-0.305C0.357,-0.336 0.349,-0.361 0.333,-0.38C0.317,-0.399 0.294,-0.408 0.263,-0.408C0.245,-0.408 0.229,-0.405 0.215,-0.398C0.201,-0.391 0.189,-0.381 0.179,-0.369C0.169,-0.356 0.161,-0.342 0.156,-0.326C0.15,-0.309 0.146,-0.292 0.145,-0.273L0.354,-0.273Z" style="fill:white;fill-rule:nonzero;"/> </g> <g transform="matrix(65.833,0,0,65.833,245.557,0)"> <path d="M0.398,-0L0.398,-0.284C0.398,-0.32 0.39,-0.347 0.375,-0.364C0.359,-0.381 0.337,-0.389 0.31,-0.389C0.289,-0.389 0.27,-0.383 0.253,-0.37C0.236,-0.357 0.222,-0.339 0.211,-0.317C0.2,-0.294 0.191,-0.268 0.185,-0.238C0.179,-0.207 0.176,-0.175 0.176,-0.141L0.176,-0L0.08,-0L0.08,-0.466L0.137,-0.466L0.161,-0.292C0.164,-0.317 0.169,-0.341 0.178,-0.364C0.187,-0.386 0.198,-0.405 0.213,-0.422C0.228,-0.439 0.245,-0.452 0.265,-0.462C0.284,-0.471 0.306,-0.476 0.331,-0.476C0.385,-0.476 0.426,-0.459 0.453,-0.426C0.48,-0.393 0.494,-0.348 0.494,-0.291L0.494,-0L0.398,-0Z" style="fill:white;fill-rule:nonzero;"/> </g> <g transform="matrix(65.833,0,0,65.833,283.016,0)"> <path d="M0.171,-0.466L0.171,-0.182C0.171,-0.146 0.179,-0.12 0.195,-0.103C0.21,-0.086 0.232,-0.077 0.259,-0.077C0.28,-0.077 0.299,-0.084 0.316,-0.097C0.333,-0.11 0.347,-0.127 0.358,-0.15C0.369,-0.172 0.378,-0.198 0.384,-0.229C0.39,-0.259 0.393,-0.291 0.393,-0.325L0.393,-0.466L0.489,-0.466L0.489,-0L0.432,-0L0.408,-0.174C0.405,-0.149 0.4,-0.125 0.391,-0.103C0.382,-0.08 0.371,-0.061 0.356,-0.044C0.341,-0.027 0.324,-0.014 0.305,-0.005C0.285,0.005 0.263,0.01 0.238,0.01C0.184,0.01 0.143,-0.007 0.116,-0.04C0.089,-0.073 0.075,-0.118 0.075,-0.175L0.075,-0.466L0.171,-0.466Z" style="fill:white;fill-rule:nonzero;"/> </g> <g transform="matrix(65.833,0,0,65.833,320.475,0)"> <path d="M0.453,-0.13C0.452,-0.105 0.446,-0.084 0.436,-0.067C0.426,-0.049 0.413,-0.034 0.397,-0.023C0.38,-0.012 0.361,-0.003 0.34,0.002C0.319,0.007 0.296,0.01 0.272,0.01C0.237,0.01 0.206,0.005 0.178,-0.006C0.149,-0.016 0.125,-0.031 0.105,-0.052C0.085,-0.073 0.069,-0.098 0.059,-0.129C0.048,-0.159 0.042,-0.194 0.042,-0.233C0.042,-0.27 0.047,-0.303 0.058,-0.333C0.069,-0.363 0.084,-0.389 0.104,-0.41C0.123,-0.431 0.147,-0.448 0.174,-0.459C0.201,-0.47 0.23,-0.476 0.262,-0.476C0.321,-0.476 0.367,-0.46 0.4,-0.427C0.432,-0.393 0.448,-0.347 0.448,-0.286C0.448,-0.261 0.445,-0.235 0.439,-0.206L0.144,-0.206C0.144,-0.161 0.156,-0.126 0.181,-0.1C0.206,-0.073 0.238,-0.06 0.277,-0.06C0.308,-0.06 0.331,-0.068 0.346,-0.084C0.36,-0.1 0.368,-0.123 0.37,-0.153L0.453,-0.13ZM0.354,-0.273C0.356,-0.284 0.357,-0.294 0.357,-0.305C0.357,-0.336 0.349,-0.361 0.333,-0.38C0.317,-0.399 0.294,-0.408 0.263,-0.408C0.245,-0.408 0.229,-0.405 0.215,-0.398C0.201,-0.391 0.189,-0.381 0.179,-0.369C0.169,-0.356 0.161,-0.342 0.156,-0.326C0.15,-0.309 0.146,-0.292 0.145,-0.273L0.354,-0.273Z" style="fill:white;fill-rule:nonzero;"/> </g> </g> </g> </svg>